<svg width="230" height="32" viewBox="0 0 230 32" fill="none" xmlns="http://www.w3.org/2000/svg">
<path d="M46.8407 24.1606C41.2615 24.1606 37.8262 20.9274 37.8262 15.808C37.8262 10.6887 41.2701 7.42969 46.8407 7.42969C50.8959 7.42969 53.5822 9.34155 54.7703 11.7034L51.0853 13.2771C50.2588 11.5572 48.6832 10.9438 46.8751 10.9438C43.9047 10.9438 41.7092 12.5461 41.7092 15.8166C41.7006 19.0155 43.9104 20.6379 46.8665 20.6379C48.6746 20.6379 50.3104 19.9901 51.1714 18.2187L54.8392 19.8209C53.6683 22.2487 50.9475 24.1606 46.8407 24.1606Z" fill="white"/>
<path d="M72.1015 14.8821V20.589C72.068 21.6114 72.2899 22.626 72.7473 23.5413H68.6432C68.3281 22.9814 68.151 22.3545 68.1267 21.7126V21.6868C67.0389 22.9795 64.9496 24.1031 62.2117 24.1031C59.1638 24.1031 55.2119 22.7817 55.2119 18.7602C55.2119 14.7387 59.1638 13.446 62.2117 13.446C64.9496 13.446 67.0389 14.5438 68.1267 15.8652V14.8534C68.1267 11.987 66.4047 10.7488 62.9866 10.7488C61.0494 10.7488 59.4996 11.0354 57.7949 12.0415L56.6067 9.17514C58.4664 8.13465 61.256 7.45532 63.7816 7.45532C68.9762 7.45246 72.1015 10.0723 72.1015 14.8821ZM68.2013 18.5653C67.1451 16.7366 65.0271 16.2866 63.1932 16.2866C61.5401 16.2866 59.1122 16.7079 59.1122 18.7602C59.1122 20.8125 61.5401 21.2626 63.1932 21.2626C65.0271 21.2626 67.1451 20.7867 68.2013 18.9695V18.5653Z" fill="white"/>
<path d="M74.2686 23.8281V7.77646H78.8605V10.2444C80.1548 8.47012 82.3474 7.43823 84.9247 7.43823H85.2116V11.7521H84.9247C81.7993 11.7521 79.6468 13.1022 78.8605 15.5586V23.8424L74.2686 23.8281Z" fill="white"/>
<path d="M74.5557 23.5413V8.06301H78.5736V11.2533C79.7216 8.92005 82.1897 7.71045 84.9248 7.71045V11.4654C81.8252 11.4654 79.426 12.7868 78.5736 15.5127V23.5413H74.5557Z" fill="white"/>
<path d="M94.3153 24.4473C88.3458 24.4473 84.7842 21.2169 84.7842 15.8081C84.7842 10.4623 88.3286 7.14307 94.0311 7.14307C99.6132 7.14307 102.945 10.3735 102.945 15.7823C102.964 16.151 102.926 16.5205 102.83 16.8772L102.767 17.0807H89.2555C89.6918 19.4168 91.4195 20.5547 94.5248 20.5547C96.7231 20.5547 98.2557 19.9987 99.8112 18.6314L100.032 18.4365L102.538 21.4261L102.345 21.6124C100.356 23.5186 97.7305 24.4473 94.3153 24.4473ZM94.057 11.0356C92.3694 11.0356 90.2514 11.5114 89.4851 13.7214L98.4394 13.6698C97.8108 11.8984 96.373 11.0356 94.057 11.0356Z" fill="white"/>
<path d="M113.018 24.4473C107.049 24.4473 103.484 21.2169 103.484 15.8081C103.484 10.4623 107.029 7.14307 112.734 7.14307C118.316 7.14307 121.648 10.3735 121.648 15.7823C121.667 16.151 121.629 16.5205 121.533 16.8772L121.47 17.0807H107.956C108.392 19.4168 110.117 20.5547 113.225 20.5547C115.423 20.5547 116.956 19.9987 118.511 18.6314L118.732 18.4365L121.238 21.4261L121.046 21.6124C119.06 23.5186 116.434 24.4473 113.018 24.4473ZM112.76 11.0356C111.073 11.0356 108.954 11.5114 108.188 13.7214L117.148 13.6698C116.52 11.8984 115.085 11.0356 112.76 11.0356Z" fill="white"/>
<path d="M113.225 20.8414C115.679 20.8414 117.243 20.1391 118.701 18.8349L120.845 21.3946C118.856 23.3064 116.299 24.1491 113.018 24.1491C107.155 24.1491 103.771 20.9445 103.771 15.7966C103.771 10.6486 107.129 7.41821 112.734 7.41821C117.9 7.41821 121.361 10.2846 121.361 15.7708C121.38 16.1114 121.345 16.4527 121.258 16.7826H107.623C107.982 19.5773 109.919 20.8414 113.225 20.8414ZM107.801 14.008L117.539 13.9535C116.919 11.7321 115.291 10.7489 112.76 10.7489C110.151 10.7489 108.369 11.8152 107.801 14.008Z" fill="white"/>
<path d="M122.834 23.8281V7.77646H127.412V10.2444C128.706 8.47012 130.901 7.43823 133.479 7.43823H133.766V11.7521H133.479C130.35 11.7521 128.198 13.1022 127.412 15.5586V23.8424L122.834 23.8281Z" fill="white"/>
<path d="M152.851 15.8081C152.851 20.8701 149.694 24.1205 145.179 24.1205C142.26 24.1205 140.142 22.7418 138.98 21.0277V23.53H134.977V2.73462H138.98V10.5798C140.142 8.86002 142.26 7.48704 145.179 7.48704C149.699 7.48704 152.851 10.749 152.851 15.8081ZM149.028 15.8081C149.028 12.7726 147.271 11.113 144.172 11.113C142.08 11.113 140.246 11.8726 139.006 13.644V17.975C140.246 19.7464 142.08 20.506 144.172 20.506C147.271 20.506 149.028 18.8464 149.028 15.8081Z" fill="white"/>
<path d="M160.751 24.3899C156.59 24.3899 154.007 21.5666 154.007 17.0177V7.76221H158.599V16.7368C158.599 19.1416 159.718 20.3598 161.928 20.3598C163.991 20.3598 165.59 19.3251 166.678 17.2842V7.76221H171.255V23.8281H166.663V21.7529C165.346 23.4211 163.202 24.3899 160.751 24.3899Z" fill="white"/>
<path d="M186.449 10.5798V2.73462H190.466V23.5415H186.449V21.0392C185.301 22.759 183.168 24.132 180.249 24.132C175.729 24.132 172.578 20.8701 172.578 15.8195C172.578 10.769 175.735 7.5071 180.249 7.5071C183.168 7.48704 185.286 8.86289 186.449 10.5798ZM186.423 17.975V13.644C185.183 11.8726 183.349 11.113 181.257 11.113C178.157 11.113 176.401 12.7726 176.401 15.8081C176.401 18.8435 178.157 20.506 181.257 20.506C183.349 20.506 185.183 19.7464 186.423 17.975Z" fill="white"/>
<path d="M199.748 24.4186C194.987 24.4186 191.79 20.9589 191.79 15.8195C191.79 10.6802 194.987 7.22048 199.748 7.22048C202.136 7.22048 204.246 8.13485 205.66 9.75721V2.448H210.238V23.8281H205.66V21.8819C204.246 23.5043 202.136 24.4186 199.748 24.4186ZM200.756 11.3996C197.808 11.3996 196.187 12.9647 196.187 15.8081C196.187 18.6515 197.808 20.2194 200.756 20.2194C202.877 20.2194 204.515 19.4312 205.635 17.8833V13.7357C204.515 12.185 202.877 11.3996 200.756 11.3996Z" fill="white"/>
<path d="M229.532 8.04883L219.866 27.0499C219.306 28.1714 218.471 29.1332 217.439 29.846C216.407 30.5587 215.211 30.9992 213.963 31.1265C212.714 31.2537 211.454 31.0637 210.299 30.574C209.144 30.0842 208.131 29.3108 207.356 28.3254L206.208 26.8665H210.8C211.169 27.2767 211.632 27.5921 212.149 27.7861C212.666 27.9802 213.223 28.0471 213.771 27.9814C214.319 27.9156 214.844 27.719 215.3 27.4082C215.757 27.0975 216.132 26.6816 216.393 26.1957L218.443 22.5841L211.228 8.04883H215.438L220.5 18.5368L225.408 8.04883H229.532Z" fill="white"/>
<path d="M16.02 32C12.8516 32 9.75426 31.0616 7.11978 29.3035C4.4853 27.5454 2.43198 25.0466 1.21946 22.1229C0.00694128 19.1993 -0.310309 15.9823 0.307827 12.8786C0.925963 9.77487 2.45172 6.92394 4.69216 4.6863C6.9326 2.44866 9.78709 0.924806 12.8947 0.307443C16.0023 -0.309921 19.2233 0.00693261 22.1506 1.21793C25.0779 2.42894 27.5799 4.4797 29.3402 7.11088C31.1005 9.74207 32.04 12.8355 32.04 16C32.0355 20.2421 30.3462 24.3091 27.3428 27.3087C24.3395 30.3083 20.2674 31.9955 16.02 32ZM16.02 5.31137C13.9027 5.31137 11.8329 5.93848 10.0724 7.11341C8.31194 8.28833 6.93987 9.95829 6.12973 11.9121C5.31958 13.8659 5.10776 16.0157 5.52104 18.0897C5.93432 20.1638 6.95415 22.0688 8.45154 23.5639C9.94893 25.059 11.8566 26.0771 13.9334 26.4893C16.0101 26.9015 18.1626 26.6894 20.1186 25.8797C22.0746 25.0701 23.7463 23.6993 24.9222 21.9407C26.0981 20.1821 26.7255 18.1147 26.7249 16C26.7219 13.1656 25.593 10.4483 23.586 8.44434C21.579 6.4404 18.8579 5.31364 16.02 5.31137Z" fill="white"/>
<path d="M12.6968 22.008C12.1835 22.0082 11.681 21.86 11.2503 21.5811C10.8195 21.3023 10.4788 20.9048 10.2693 20.4367C10.0599 19.9686 9.99068 19.45 10.07 18.9434C10.1494 18.4369 10.3739 17.9642 10.7165 17.5824L16.7951 10.7862C17.0282 10.5261 17.3103 10.3144 17.6253 10.1632C17.9403 10.012 18.2821 9.92424 18.6311 9.90494C18.9801 9.88565 19.3294 9.93519 19.6592 10.0507C19.989 10.1663 20.2928 10.3456 20.5533 10.5784C20.8137 10.8112 21.0257 11.093 21.1771 11.4076C21.3285 11.7222 21.4163 12.0636 21.4356 12.4121C21.455 12.7607 21.4054 13.1096 21.2897 13.439C21.174 13.7684 20.9944 14.0718 20.7613 14.3319L14.6828 21.1223C14.4333 21.4018 14.1272 21.6252 13.7849 21.7779C13.4426 21.9305 13.0717 22.009 12.6968 22.008Z" fill="white"/>
</svg>
