<svg width="202" height="29" viewBox="0 0 202 29" fill="none" xmlns="http://www.w3.org/2000/svg">
<path d="M40.9855 21.8912C35.9631 21.8912 32.8467 18.9944 32.8467 14.3319C32.8467 9.66938 35.9656 6.75 40.9855 6.75C44.25 6.75 46.9245 8.19966 48.1474 10.6275L48.268 10.8657L44.569 12.4433L44.4635 12.2276C43.8583 10.9736 42.6931 10.3265 41.0081 10.3265C38.3336 10.3265 36.739 11.8313 36.739 14.3394C36.739 16.8475 38.3336 18.3071 41.0081 18.3071C42.7132 18.3071 43.906 17.6425 44.5564 16.3308L44.6619 16.1151L48.3307 17.7178L48.2152 17.9535C47.0073 20.4214 44.3028 21.8912 40.9855 21.8912Z" fill="#FF2449"/>
<path d="M40.9853 21.6405C36.1036 21.6405 33.0977 18.8114 33.0977 14.332C33.0977 9.85264 36.1111 7.00098 40.9853 7.00098C44.5337 7.00098 46.8841 8.67385 47.9238 10.7405L44.6994 12.1174C43.9762 10.6126 42.5975 10.0759 41.0155 10.0759C38.4164 10.0759 36.4953 11.4779 36.4953 14.3396C36.4878 17.1386 38.4214 18.5581 41.0079 18.5581C42.59 18.5581 44.0214 17.9913 44.7747 16.4413L47.984 17.8433C46.9595 19.9677 44.5789 21.6405 40.9853 21.6405Z" fill="#FF2449"/>
<path d="M54.4351 21.8411C51.2609 21.8411 48.0591 20.3187 48.0591 16.9152C48.0385 16.1351 48.2307 15.364 48.6151 14.6845C48.9995 14.0051 49.5616 13.4428 50.2413 13.0578C51.7481 12.1499 53.5059 12.0145 54.4351 12.0145C56.3938 12.0145 58.1843 12.654 59.3595 13.7501V13.4993C59.3595 11.1868 58.0487 10.1585 55.1131 10.1585C53.5712 10.1585 52.2302 10.3441 50.6984 11.2545L50.4473 11.4025L49.2193 8.41542L49.4152 8.30757C51.0801 7.37708 53.5938 6.77515 55.8212 6.77515C60.6051 6.77515 63.3548 9.23305 63.3548 13.5218V18.5154C63.325 19.3699 63.5097 20.2183 63.8922 20.9833L64.0831 21.3495H59.912L59.8417 21.2191C59.6414 20.8522 59.4975 20.4574 59.4148 20.0478C58.227 21.1789 56.4089 21.8411 54.4351 21.8411ZM55.2939 15.0016C54.2894 15.0016 51.9741 15.1897 51.9741 16.9152C51.9741 18.6408 54.2944 18.854 55.2939 18.854C56.6776 18.854 58.5082 18.5354 59.4273 17.0206V16.8024C58.6991 15.611 57.3079 15.0016 55.2939 15.0016Z" fill="#FF2449"/>
<path d="M63.089 13.5218V18.5154C63.0596 19.41 63.2538 20.2978 63.654 21.0987H60.063C59.7872 20.6087 59.6322 20.0602 59.6109 19.4985V19.476C58.6592 20.6071 56.831 21.5903 54.4354 21.5903C51.7685 21.5903 48.3105 20.434 48.3105 16.9152C48.3105 13.3964 51.7685 12.2653 54.4354 12.2653C56.831 12.2653 58.6592 13.2259 59.6109 14.3821V13.4967C59.6109 10.9887 58.1042 9.9052 55.1134 9.9052C53.4183 9.9052 52.0623 10.156 50.5706 11.0363L49.531 8.52828C51.1582 7.61785 53.5991 7.02344 55.809 7.02344C60.3543 7.02093 63.089 9.3133 63.089 13.5218ZM59.6762 16.7447C58.7521 15.1445 56.8988 14.7508 55.2942 14.7508C53.8477 14.7508 51.7233 15.1195 51.7233 16.9152C51.7233 18.711 53.8477 19.1048 55.2942 19.1048C56.8988 19.1048 58.7521 18.6884 59.6762 17.0983V16.7447Z" fill="#FF2449"/>
<path d="M64.9849 21.3496V7.3045H69.0028V9.46394C70.1353 7.91145 72.0539 7.00854 74.3089 7.00854H74.5601V10.7832H74.3089C71.5743 10.7832 69.6909 11.9645 69.0028 14.1139V21.3622L64.9849 21.3496Z" fill="#FF2449"/>
<path d="M65.2358 21.0988V7.55532H68.7515V10.3468C69.756 8.30523 71.9156 7.24683 74.3088 7.24683V10.5324C71.5967 10.5324 69.4973 11.6886 68.7515 14.0738V21.0988H65.2358Z" fill="#FF2449"/>
<path d="M82.5257 21.8912C77.3024 21.8912 74.186 19.0646 74.186 14.3319C74.186 9.65434 77.2874 6.75 82.2771 6.75C87.1614 6.75 90.0769 9.57659 90.0769 14.3093C90.0937 14.6319 90.0598 14.9552 89.9764 15.2674L89.9212 15.4454H78.0985C78.4802 17.4895 79.9919 18.4852 82.709 18.4852C84.6326 18.4852 85.9736 17.9987 87.3347 16.8023L87.528 16.6318L89.7203 19.2477L89.5521 19.4107C87.8118 21.0786 85.5141 21.8912 82.5257 21.8912ZM82.2997 10.1559C80.8231 10.1559 78.9699 10.5723 78.2994 12.506L86.1343 12.4609C85.5844 10.9109 84.3263 10.1559 82.2997 10.1559Z" fill="#FF2449"/>
<path d="M82.7064 18.7362C84.8535 18.7362 86.2095 18.1217 87.4978 16.9806L89.3736 19.2203C87.6334 20.8932 85.3959 21.6305 82.5256 21.6305C77.3952 21.6305 74.437 18.8265 74.437 14.322C74.437 9.81755 77.3726 6.99097 82.277 6.99097C86.7971 6.99097 89.8256 9.49903 89.8256 14.2995C89.8417 14.5975 89.8112 14.8962 89.7352 15.1848H77.802C78.1184 17.6302 79.8135 18.7362 82.7064 18.7362ZM77.9602 12.757L86.4807 12.7093C85.9383 10.7656 84.5145 9.90533 82.2996 9.90533C80.0169 9.90533 78.4574 10.8383 77.9602 12.757Z" fill="#FF2449"/>
<path d="M98.891 21.8912C93.6677 21.8912 90.5488 19.0646 90.5488 14.3319C90.5488 9.65434 93.6502 6.75 98.6424 6.75C103.527 6.75 106.442 9.57659 106.442 14.3093C106.459 14.6319 106.425 14.9552 106.342 15.2674L106.287 15.4454H94.4613C94.843 17.4895 96.3522 18.4852 99.0718 18.4852C100.995 18.4852 102.336 17.9987 103.697 16.8023L103.891 16.6318L106.083 19.2477L105.915 19.4107C104.177 21.0786 101.879 21.8912 98.891 21.8912ZM98.665 10.1559C97.1884 10.1559 95.3352 10.5723 94.6647 12.506L102.505 12.4609C101.955 10.9109 100.699 10.1559 98.665 10.1559Z" fill="#FF2449"/>
<path d="M99.0717 18.7362C101.219 18.7362 102.587 18.1217 103.863 16.9806L105.739 19.2203C103.999 20.8932 101.761 21.6305 98.8909 21.6305C93.7605 21.6305 90.7998 18.8265 90.7998 14.322C90.7998 9.81755 93.7379 6.99097 98.6423 6.99097C103.162 6.99097 106.191 9.49903 106.191 14.2995C106.207 14.5975 106.177 14.8962 106.101 15.1848H94.1698C94.4837 17.6302 96.1788 18.7362 99.0717 18.7362ZM94.3255 12.757L102.846 12.7093C102.304 10.7656 100.88 9.90533 98.6649 9.90533C96.3822 9.90533 94.8227 10.8383 94.3255 12.757Z" fill="#FF2449"/>
<path d="M107.479 21.3496V7.3045H111.485V9.46394C112.617 7.91145 114.538 7.00854 116.794 7.00854H117.045V10.7832H116.794C114.056 10.7832 112.173 11.9645 111.485 14.1139V21.3622L107.479 21.3496Z" fill="#FF2449"/>
<path d="M107.73 21.0988V7.55532H111.234V10.3468C112.251 8.30523 114.398 7.24683 116.793 7.24683V10.5324C114.081 10.5324 111.979 11.6886 111.234 14.0738V21.0988H107.73Z" fill="#FF2449"/>
<path d="M127.031 21.8661C124.942 21.8661 123.096 21.0661 121.858 19.6465V21.3495H117.853V2.64185H121.858V9.02737C123.096 7.60781 124.942 6.80774 127.031 6.80774C131.198 6.80774 133.995 9.83497 133.995 14.3319C133.995 18.8289 131.198 21.8661 127.031 21.8661ZM121.881 16.1478C122.858 17.5021 124.294 18.1918 126.15 18.1918C128.729 18.1918 130.148 16.8199 130.148 14.3319C130.148 11.8439 128.729 10.4745 126.15 10.4745C124.294 10.4745 122.858 11.1617 121.881 12.5186V16.1478Z" fill="#FF2449"/>
<path d="M133.744 14.3321C133.744 18.7613 130.981 21.6055 127.031 21.6055C124.477 21.6055 122.624 20.3991 121.607 18.8993V21.0888H118.104V2.89282H121.607V9.75739C122.624 8.25255 124.477 7.05119 127.031 7.05119C130.986 7.05119 133.744 9.90536 133.744 14.3321ZM130.399 14.3321C130.399 11.6761 128.862 10.2239 126.15 10.2239C124.319 10.2239 122.715 10.8885 121.63 12.4385V16.2282C122.715 17.7782 124.319 18.4428 126.15 18.4428C128.862 18.4428 130.399 16.9906 130.399 14.3321Z" fill="#FF2449"/>
<path d="M140.657 21.841C137.016 21.841 134.756 19.3706 134.756 15.3903V7.29175H138.774V15.1445C138.774 17.2488 139.753 18.3147 141.687 18.3147C143.492 18.3147 144.891 17.4093 145.843 15.6235V7.29175H149.848V21.3494H145.83V19.5336C144.678 20.9933 142.802 21.841 140.657 21.841Z" fill="#FF2449"/>
<path d="M149.585 7.54272V21.0988H146.082V18.7111C145.065 20.5094 143.053 21.5904 140.658 21.5904C136.928 21.5904 135.007 19.0071 135.007 15.3904V7.54272H138.523V15.1447C138.523 17.3593 139.608 18.5657 141.687 18.5657C143.54 18.5657 145.077 17.6301 146.094 15.6864V7.54272H149.585Z" fill="#FF2449"/>
<path d="M157.718 21.8661C153.552 21.8661 150.755 18.8389 150.755 14.342C150.755 9.845 153.552 6.81777 157.718 6.81777C159.808 6.81777 161.653 7.61784 162.891 9.0374V2.64185H166.909V21.3495H162.891V19.6465C161.653 21.0661 159.808 21.8661 157.718 21.8661ZM158.6 10.4745C156.021 10.4745 154.602 11.8439 154.602 14.3319C154.602 16.8199 156.021 18.1918 158.6 18.1918C160.456 18.1918 161.89 17.5021 162.869 16.1478V12.5186C161.89 11.1617 160.466 10.4745 158.6 10.4745Z" fill="#FF2449"/>
<path d="M163.142 9.75739V2.89282H166.658V21.0988H163.142V18.9093C162.138 20.4141 160.272 21.6155 157.718 21.6155C153.763 21.6155 151.006 18.7613 151.006 14.3421C151.006 9.92292 153.768 7.06875 157.718 7.06875C160.272 7.05119 162.125 8.25506 163.142 9.75739ZM163.12 16.2282V12.4385C162.035 10.8885 160.43 10.2239 158.6 10.2239C155.888 10.2239 154.351 11.6761 154.351 14.3321C154.351 16.9881 155.888 18.4428 158.6 18.4428C160.43 18.4428 162.035 17.7782 163.12 16.2282Z" fill="#FF2449"/>
<path d="M174.779 21.8661C170.613 21.8661 167.816 18.8389 167.816 14.342C167.816 9.845 170.613 6.81777 174.779 6.81777C176.869 6.81777 178.715 7.61784 179.953 9.0374V2.64185H183.958V21.3495H179.953V19.6465C178.715 21.0661 176.869 21.8661 174.779 21.8661ZM175.661 10.4745C173.082 10.4745 171.663 11.8439 171.663 14.3319C171.663 16.8199 173.082 18.1918 175.661 18.1918C177.517 18.1918 178.951 17.5021 179.93 16.1478V12.5186C178.951 11.1617 177.517 10.4745 175.661 10.4745Z" fill="#FF2449"/>
<path d="M180.204 9.75739V2.89282H183.707V21.0988H180.204V18.9093C179.186 20.4141 177.333 21.6155 174.779 21.6155C170.824 21.6155 168.067 18.7613 168.067 14.3421C168.067 9.92292 170.829 7.06875 174.779 7.06875C177.333 7.05119 179.186 8.25506 180.204 9.75739ZM180.181 16.2282V12.4385C179.096 10.8885 177.491 10.2239 175.661 10.2239C172.949 10.2239 171.412 11.6761 171.412 14.3321C171.412 16.9881 172.949 18.4428 175.661 18.4428C177.491 18.4428 179.096 17.7782 180.181 16.2282Z" fill="#FF2449"/>
<path d="M186.545 28.0184C185.522 28.0201 184.513 27.7888 183.594 27.342C182.675 26.8952 181.87 26.2447 181.241 25.4401L179.915 23.7572H184.558L184.634 23.8399C184.891 24.1299 185.207 24.3617 185.562 24.52C185.916 24.6782 186.3 24.7593 186.688 24.7579C187.189 24.7596 187.681 24.6251 188.111 24.3688C188.542 24.1126 188.894 23.7442 189.131 23.3032L190.851 20.2534L184.413 7.29175H188.659L192.928 16.1352L197.064 7.29175H201.25L192.609 24.2814C192.05 25.4087 191.185 26.3566 190.113 27.0173C189.041 27.6779 187.804 28.0248 186.545 28.0184Z" fill="#FF2449"/>
<path d="M200.841 7.54272L192.383 24.1687C191.893 25.15 191.162 25.9916 190.259 26.6152C189.356 27.2389 188.31 27.6243 187.217 27.7357C186.125 27.847 185.022 27.6807 184.012 27.2522C183.001 26.8237 182.115 26.1469 181.437 25.2848L180.432 24.0082H184.45C184.773 24.3671 185.178 24.6431 185.631 24.8129C186.083 24.9826 186.57 25.0412 187.05 24.9837C187.53 24.9261 187.989 24.7541 188.388 24.4822C188.787 24.2103 189.115 23.8464 189.344 23.4213L191.137 20.2611L184.824 7.54272H188.508L192.938 16.7197L197.232 7.54272H200.841Z" fill="#FF2449"/>
<path d="M14.0175 28.5C11.2451 28.5 8.53498 27.6789 6.22981 26.1406C3.92464 24.6022 2.12798 22.4157 1.06703 19.8576C0.00607362 17.2994 -0.27152 14.4845 0.269349 11.7687C0.810218 9.05301 2.14526 6.55845 4.10564 4.60051C6.06603 2.64258 8.56371 1.30921 11.2828 0.769012C14.002 0.228819 16.8204 0.506066 19.3818 1.56569C21.9432 2.62532 24.1324 4.41973 25.6727 6.72202C27.2129 9.02431 28.035 11.7311 28.035 14.5C28.031 18.2118 26.5529 21.7705 23.925 24.3951C21.2971 27.0198 17.734 28.496 14.0175 28.5ZM14.0175 5.14744C12.1648 5.14745 10.3538 5.69617 8.81336 6.72423C7.27295 7.75229 6.07238 9.2135 5.36351 10.9231C4.65463 12.6326 4.46929 14.5137 4.83091 16.3285C5.19253 18.1433 6.08488 19.8102 7.3951 21.1184C8.70532 22.4267 10.3746 23.3175 12.1917 23.6781C14.0088 24.0388 15.8923 23.8532 17.6038 23.1448C19.3153 22.4363 20.778 21.2369 21.8069 19.6981C22.8359 18.1593 23.3848 16.3504 23.3843 14.5C23.3816 12.0199 22.3938 9.64224 20.6377 7.88879C18.8816 6.13535 16.5007 5.14944 14.0175 5.14744Z" fill="#FF2449"/>
<path d="M11.1096 19.7568C10.6604 19.757 10.2208 19.6273 9.84386 19.3833C9.46693 19.1393 9.16882 18.7915 8.98556 18.3819C8.80229 17.9724 8.74172 17.5185 8.81116 17.0753C8.8806 16.6321 9.07707 16.2185 9.37685 15.8844L14.6956 9.93776C14.8995 9.71017 15.1464 9.52493 15.422 9.39263C15.6977 9.26032 15.9967 9.18353 16.3021 9.16664C16.6074 9.14976 16.9131 9.19311 17.2017 9.29422C17.4903 9.39533 17.7561 9.55222 17.984 9.75593C18.2119 9.95964 18.3973 10.2062 18.5298 10.4815C18.6623 10.7568 18.7392 11.0554 18.7561 11.3604C18.773 11.6654 18.7296 11.9707 18.6283 12.2589C18.5271 12.5472 18.37 12.8126 18.166 13.0402L12.8473 18.9818C12.629 19.2264 12.3612 19.4219 12.0617 19.5555C11.7621 19.689 11.4376 19.7577 11.1096 19.7568Z" fill="#FF2449"/>
</svg>
