<svg width="24" height="24" viewBox="0 0 24 24" fill="none" xmlns="http://www.w3.org/2000/svg">
<g clip-path="url(#clip0_3104_16610)">
<path d="M21.3792 16.913C19.8672 15.635 19.0002 13.767 19.0002 11.788V9C19.0002 5.481 16.3862 2.568 13.0002 2.08V1C13.0002 0.447 12.5522 0 12.0002 0C11.4482 0 11.0002 0.447 11.0002 1V2.08C7.61324 2.568 5.00024 5.481 5.00024 9V11.788C5.00024 13.767 4.13324 15.635 2.61224 16.921C2.22324 17.254 2.00024 17.738 2.00024 18.25C2.00024 19.215 2.78524 20 3.75024 20H20.2502C21.2152 20 22.0002 19.215 22.0002 18.25C22.0002 17.738 21.7772 17.254 21.3792 16.913Z" fill="white"/>
<path d="M12 24C13.811 24 15.326 22.709 15.674 21H8.32605C8.67405 22.709 10.189 24 12 24Z" fill="white"/>
</g>
<defs>
<clipPath id="clip0_3104_16610">
<rect width="24" height="24" fill="white"/>
</clipPath>
</defs>
</svg>
