<svg width="14" height="14" viewBox="0 0 14 14" fill="none" xmlns="http://www.w3.org/2000/svg">
<g clip-path="url(#clip0_3175_16955)">
<path d="M5.10071 7.7237C5.10071 7.54833 4.95846 7.40625 4.78294 7.40625H3.67404C3.49872 7.40625 3.35645 7.54833 3.35645 7.7237V8.83246C3.35645 9.00806 3.49872 9.1502 3.67404 9.1502H4.78294C4.95846 9.1502 5.10071 9.00806 5.10071 8.83246V7.7237Z" fill="white"/>
<path d="M7.87201 7.7237C7.87201 7.54833 7.72973 7.40625 7.55456 7.40625H6.44552C6.27021 7.40625 6.12793 7.54833 6.12793 7.7237V8.83246C6.12793 9.00806 6.27021 9.1502 6.44552 9.1502H7.55456C7.72973 9.1502 7.87201 9.00806 7.87201 8.83246V7.7237Z" fill="white"/>
<path d="M10.6437 7.7237C10.6437 7.54833 10.5014 7.40625 10.3261 7.40625H9.21718C9.04166 7.40625 8.89941 7.54833 8.89941 7.7237V8.83246C8.89941 9.00806 9.04166 9.1502 9.21718 9.1502H10.3261C10.5014 9.1502 10.6437 9.00806 10.6437 8.83246V7.7237Z" fill="white"/>
<path d="M5.10071 10.4951C5.10071 10.3195 4.95846 10.1775 4.78294 10.1775H3.67404C3.49872 10.1775 3.35645 10.3195 3.35645 10.4951V11.6037C3.35645 11.7792 3.49872 11.9213 3.67404 11.9213H4.78294C4.95846 11.9213 5.10071 11.7791 5.10071 11.6037V10.4951Z" fill="white"/>
<path d="M7.87201 10.4951C7.87201 10.3195 7.72973 10.1775 7.55456 10.1775H6.44552C6.27021 10.1775 6.12793 10.3195 6.12793 10.4951V11.6037C6.12793 11.7792 6.27021 11.9213 6.44552 11.9213H7.55456C7.72973 11.9213 7.87201 11.7791 7.87201 11.6037V10.4951Z" fill="white"/>
<path d="M10.6437 10.4951C10.6437 10.3195 10.5014 10.1775 10.3262 10.1775H9.21718C9.04166 10.1775 8.89941 10.3195 8.89941 10.4951V11.6037C8.89941 11.7792 9.04166 11.9213 9.21718 11.9213H10.3262C10.5014 11.9213 10.6437 11.7791 10.6437 11.6037V10.4951Z" fill="white"/>
<path d="M12.6264 1.55906V3.25259C12.6264 4.01805 12.0054 4.63489 11.2401 4.63489H10.3656C9.60015 4.63489 8.97095 4.01805 8.97095 3.25259V1.55298H5.02923V3.25259C5.02923 4.01805 4.40005 4.63489 3.63477 4.63489H2.76007C1.99475 4.63489 1.37381 4.01805 1.37381 3.25259V1.55906C0.704918 1.57922 0.155273 2.13271 0.155273 2.81302V12.7379C0.155273 13.431 0.717049 14.0003 1.41015 14.0003H12.59C13.2821 14.0003 13.8449 13.4299 13.8449 12.7379V2.81302C13.8449 2.13271 13.2953 1.57922 12.6264 1.55906ZM12.2202 12.1199C12.2202 12.4194 11.9773 12.6624 11.6777 12.6624H2.29859C1.99894 12.6624 1.75608 12.4194 1.75608 12.1199V6.99331C1.75608 6.69366 1.99891 6.45066 2.29859 6.45066H11.6777C11.9773 6.45066 12.2202 6.69366 12.2202 6.99331L12.2202 12.1199Z" fill="white"/>
<path d="M2.7567 3.72677H3.62173C3.8843 3.72677 4.09718 3.5142 4.09718 3.25163V0.475307C4.09718 0.212717 3.8843 0 3.62173 0H2.7567C2.49411 0 2.28125 0.212717 2.28125 0.475307V3.25163C2.28125 3.5142 2.49411 3.72677 2.7567 3.72677Z" fill="white"/>
<path d="M10.3543 3.72677H11.2194C11.4817 3.72677 11.6946 3.5142 11.6946 3.25163V0.475307C11.6947 0.212717 11.4818 0 11.2194 0H10.3543C10.0918 0 9.87891 0.212717 9.87891 0.475307V3.25163C9.87891 3.5142 10.0918 3.72677 10.3543 3.72677Z" fill="white"/>
</g>
<defs>
<clipPath id="clip0_3175_16955">
<rect width="14" height="14" fill="white"/>
</clipPath>
</defs>
</svg>
