<svg width="24" height="24" viewBox="0 0 24 24" fill="none" xmlns="http://www.w3.org/2000/svg">
<path d="M20.1667 0.333496H3.83337C1.85004 0.333496 0.333374 1.85016 0.333374 3.8335V15.5002C0.333374 17.4835 1.85004 19.0002 3.83337 19.0002H17.3667L21.6834 23.3168C22.15 23.7835 22.85 23.7835 23.3167 23.3168C23.55 23.0835 23.6667 22.8502 23.6667 22.5002V3.8335C23.6667 1.85016 22.15 0.333496 20.1667 0.333496ZM13.1667 13.1668H6.16671C5.46671 13.1668 5.00004 12.7002 5.00004 12.0002C5.00004 11.3002 5.46671 10.8335 6.16671 10.8335H13.1667C13.8667 10.8335 14.3334 11.3002 14.3334 12.0002C14.3334 12.7002 13.8667 13.1668 13.1667 13.1668ZM17.8334 8.50016H6.16671C5.46671 8.50016 5.00004 8.0335 5.00004 7.3335C5.00004 6.6335 5.46671 6.16683 6.16671 6.16683H17.8334C18.5334 6.16683 19 6.6335 19 7.3335C19 8.0335 18.5334 8.50016 17.8334 8.50016Z"/>
</svg>
