<svg width="24" height="24" viewBox="0 0 24 24" fill="none" xmlns="http://www.w3.org/2000/svg">
<path d="M18.7528 20.7314H14.8737H13.8292H13.6036V15.5283H15.3053C15.7368 15.5283 15.9918 15.0379 15.7368 14.6849L12.4266 10.1046C12.2158 9.81032 11.7793 9.81032 11.5685 10.1046L8.25828 14.6849C8.00327 15.0379 8.25337 15.5283 8.68982 15.5283H10.3915V20.7314H10.1659H9.12137H4.62444C2.04986 20.5892 0 18.1814 0 15.5725C0 13.7727 0.975889 12.2035 2.42256 11.3551C2.29015 10.9971 2.2215 10.6146 2.2215 10.2124C2.2215 8.37346 3.7074 6.88756 5.54638 6.88756C5.9436 6.88756 6.32611 6.95621 6.6841 7.08862C7.74826 4.8328 10.0433 3.26843 12.7111 3.26843C16.1635 3.27334 19.0078 5.91657 19.3314 9.2856C21.9845 9.74167 24 12.1986 24 14.9791C24 17.9509 21.6853 20.5255 18.7528 20.7314Z" fill="#EA4C89"/>
</svg>
