<svg width="40" height="40" viewBox="0 0 40 40" fill="none" xmlns="http://www.w3.org/2000/svg">
<rect opacity="0.1" width="40" height="40" rx="5" fill="#ED124D"/>
<g clip-path="url(#clip0_3177_17722)">
<path d="M32.1052 30.6196H30.8376L29.1475 27.7446L32.1052 30.6196Z" fill="#FF9441"/>
<path d="M30.8376 6H32.1052L29.1475 8.87493L30.8376 6Z" fill="#FF9441"/>
<path d="M15.1924 6.42254V30.6197H30.8378V6H15.6149C15.3816 6 15.1924 6.18918 15.1924 6.42254Z" fill="#6D2E5D"/>
<path d="M16.0367 24.5918L8.21582 25.5394L15.9341 33.2577L16.0367 24.5918Z" fill="#F0386A"/>
<path d="M20.374 17.7791L26.2895 12.7087V7.68994H24.5994L20.374 17.7791Z" fill="#ED124D"/>
<path d="M24.6004 17.7791L7.47363 12.7087V8.11248C7.47363 7.87912 7.66282 7.68994 7.89617 7.68994H24.6004V17.7791Z" fill="#F0386A"/>
<path d="M24.6007 12.709L18.2363 23.3546L24.6007 34.0001H25.8683C26.1016 34.0001 26.2908 33.8109 26.2908 33.5775V12.709H24.6007Z" fill="#FFCCDA"/>
<path d="M7.47363 12.709V23.7466C7.47363 25.1467 8.60868 26.2818 10.0088 26.2818H14.7694C15.0028 26.2818 15.1919 26.471 15.1919 26.7043V31.4649C15.1919 32.865 16.327 34.0001 17.7272 34.0001H24.6004V12.709H7.47363Z" fill="#F8A0B8"/>
<path d="M32.5265 6.42254V30.1972C32.5265 30.4305 32.3373 30.6197 32.1039 30.6197C31.6521 30.6197 31.216 30.4992 30.8363 30.28L27.4561 18.3099L30.8363 6.33972C31.216 6.12056 31.6521 6 32.1039 6C32.3373 6 32.5265 6.18918 32.5265 6.42254Z" fill="#5A264D"/>
<path d="M30.8373 6.33984V30.2801C30.5032 30.0874 30.2125 29.8182 29.9928 29.4869L23.1923 19.2449C22.8161 18.6784 22.8161 17.9416 23.1923 17.3751L29.9928 7.13308C30.2125 6.80182 30.5032 6.53252 30.8373 6.33984Z" fill="#B34C99"/>
<path d="M16.8814 16.5116H10.8532C10.6198 16.5116 10.4307 16.3224 10.4307 16.089C10.4307 15.8557 10.6198 15.6665 10.8532 15.6665H16.8814C17.1147 15.6665 17.3039 15.8557 17.3039 16.089C17.3039 16.3224 17.1148 16.5116 16.8814 16.5116Z" fill="#B34C99"/>
<path d="M16.8814 18.2015H10.8532C10.6198 18.2015 10.4307 18.0123 10.4307 17.779C10.4307 17.5456 10.6198 17.3564 10.8532 17.3564H16.8814C17.1147 17.3564 17.3039 17.5456 17.3039 17.779C17.3039 18.0123 17.1148 18.2015 16.8814 18.2015Z" fill="#B34C99"/>
<path d="M22.9095 23.3236H10.8532C10.6198 23.3236 10.4307 23.1344 10.4307 22.901C10.4307 22.6677 10.6198 22.4785 10.8532 22.4785H22.9095C23.1429 22.4785 23.3321 22.6677 23.3321 22.901C23.3321 23.1344 23.143 23.3236 22.9095 23.3236Z" fill="#B34C99"/>
<path d="M16.8814 21.6336H10.8532C10.6198 21.6336 10.4307 21.4445 10.4307 21.2111C10.4307 20.9778 10.6198 20.7886 10.8532 20.7886H16.8814C17.1147 20.7886 17.3039 20.9778 17.3039 21.2111C17.3039 21.4445 17.1148 21.6336 16.8814 21.6336Z" fill="#B34C99"/>
<path d="M22.9097 31.0423H16.8815C16.6482 31.0423 16.459 30.8531 16.459 30.6198C16.459 30.3864 16.6482 30.1973 16.8815 30.1973H22.9097C23.143 30.1973 23.3322 30.3864 23.3322 30.6198C23.3322 30.8531 23.1431 31.0423 22.9097 31.0423Z" fill="#B34C99"/>
<path d="M22.9095 25.014H10.8532C10.6198 25.014 10.4307 24.8248 10.4307 24.5915C10.4307 24.3581 10.6198 24.1689 10.8532 24.1689H22.9095C23.1429 24.1689 23.3321 24.3581 23.3321 24.5915C23.3321 24.8248 23.143 25.014 22.9095 25.014Z" fill="#B34C99"/>
</g>
<defs>
<clipPath id="clip0_3177_17722">
<rect width="28" height="28" fill="white" transform="translate(6 6)"/>
</clipPath>
</defs>
</svg>
