<svg width="17" height="16" viewBox="0 0 17 16" fill="currentColor" xmlns="http://www.w3.org/2000/svg">
<path d="M14.9091 6.12C14.7138 5.81334 14.5049 5.52667 14.2894 5.26C14.0401 4.94667 13.5685 4.92 13.2856 5.2L11.2646 7.2C11.4128 7.64 11.4398 8.14667 11.305 8.67334C11.0693 9.61334 10.3013 10.3733 9.35143 10.6067C8.81924 10.74 8.30726 10.7133 7.86264 10.5667C7.86264 10.5667 6.89931 11.52 6.20544 12.2067C5.86861 12.54 5.9764 13.1267 6.42775 13.3C7.14856 13.5733 7.89633 13.7133 8.6643 13.7133C9.86342 13.7133 11.0288 13.3667 12.0932 12.72C13.1778 12.0533 14.1546 11.0733 14.9428 9.82667C15.5828 8.82 15.5491 7.12667 14.9091 6.12Z"/>
<path d="M10.025 6.65332L7.30342 9.34666C6.95986 8.99999 6.73755 8.51999 6.73755 7.99999C6.73755 6.95332 7.59983 6.09332 8.66422 6.09332C9.18967 6.09332 9.67471 6.31332 10.025 6.65332Z"/>
<path d="M12.8746 3.83335L10.5909 6.09335C10.0991 5.60002 9.41871 5.30668 8.66422 5.30668C7.15522 5.30668 5.94263 6.51335 5.94263 8.00001C5.94263 8.74668 6.24577 9.42001 6.73755 9.90668L4.46058 12.1667H4.45384C3.70608 11.5667 3.01894 10.8 2.43286 9.89335C1.7592 8.84668 1.7592 7.14668 2.43286 6.10001C3.2143 4.88668 4.1709 3.93335 5.23528 3.28002C6.29967 2.64002 7.4651 2.28668 8.66422 2.28668C10.1665 2.28668 11.6216 2.83335 12.8746 3.83335Z"/>
<path d="M10.5909 7.99999C10.5909 9.04666 9.72859 9.90666 8.6642 9.90666C8.62379 9.90666 8.5901 9.90666 8.54968 9.89332L10.5774 7.88666C10.5909 7.92666 10.5909 7.95999 10.5909 7.99999Z"/>
<path d="M15.2459 1.48667C15.0438 1.28667 14.7137 1.28667 14.5116 1.48667L2.0826 13.7933C1.88051 13.9933 1.88051 14.32 2.0826 14.52C2.18365 14.6133 2.31165 14.6667 2.44638 14.6667C2.58111 14.6667 2.70911 14.6133 2.81016 14.5133L15.2459 2.20667C15.4548 2.00667 15.4548 1.68667 15.2459 1.48667Z"/>
</svg>
