<svg width="20" height="20" viewBox="0 0 20 20" fill="none" xmlns="http://www.w3.org/2000/svg">
<path d="M10 19.999C15.5228 19.999 20 15.5219 20 9.99902C20 4.47618 15.5228 -0.000976562 10 -0.000976562C4.47715 -0.000976562 0 4.47618 0 9.99902C0 15.5219 4.47715 19.999 10 19.999Z" fill="white"/>
<path d="M15.975 10.8045V14.9273H13.5847V11.0808C13.5847 10.115 13.2396 9.45542 12.3741 9.45542C11.7137 9.45542 11.3213 9.89947 11.1481 10.3294C11.0851 10.4831 11.0689 10.6965 11.0689 10.912V14.9271H8.67845C8.67845 14.9271 8.71054 8.41243 8.67845 7.73807H11.0691V8.75682C11.0643 8.76484 11.0575 8.77269 11.0532 8.78035H11.0691V8.75682C11.3867 8.26803 11.9533 7.56926 13.2234 7.56926C14.796 7.56926 15.975 8.59675 15.975 10.8045ZM6.17783 4.27271C5.36015 4.27271 4.8252 4.80944 4.8252 5.51464C4.8252 6.20486 5.34464 6.75711 6.14645 6.75711H6.16196C6.99568 6.75711 7.51406 6.20486 7.51406 5.51464C7.4982 4.80944 6.99568 4.27271 6.17783 4.27271ZM4.96727 14.9273H7.35684V7.73807H4.96727V14.9273Z" fill="#007AB9"/>
</svg>
