<svg width="17" height="16" viewBox="0 0 17 16" fill="none" xmlns="http://www.w3.org/2000/svg">
<path d="M8.06292 11.5667C8.66425 11.5667 9.15172 11.0802 9.15172 10.48C9.15172 9.87986 8.66425 9.39334 8.06292 9.39334C7.46159 9.39334 6.97412 9.87986 6.97412 10.48C6.97412 11.0802 7.46159 11.5667 8.06292 11.5667Z" fill="#090E11" fill-opacity="0.2"/>
<path d="M12.2577 6.35334V5.52001C12.2577 3.72001 11.8235 1.33334 8.06282 1.33334C4.30211 1.33334 3.86793 3.72001 3.86793 5.52001V6.35334C1.99759 6.58668 1.38306 7.53334 1.38306 9.86001V11.1C1.38306 13.8333 2.21803 14.6667 4.95673 14.6667H11.1689C13.9076 14.6667 14.7426 13.8333 14.7426 11.1V9.86001C14.7426 7.53334 14.128 6.58668 12.2577 6.35334ZM8.06282 12.4933C6.9473 12.4933 6.04553 11.5867 6.04553 10.48C6.04553 9.36668 6.95398 8.46668 8.06282 8.46668C9.17166 8.46668 10.0801 9.37334 10.0801 10.48C10.0801 11.5933 9.17834 12.4933 8.06282 12.4933ZM4.95673 6.29334C4.90329 6.29334 4.85653 6.29334 4.8031 6.29334V5.52001C4.8031 3.56668 5.35752 2.26668 8.06282 2.26668C10.7681 2.26668 11.3225 3.56668 11.3225 5.52001V6.30001C11.2691 6.30001 11.2224 6.30001 11.1689 6.30001H4.95673V6.29334Z" fill="#090E11" fill-opacity="0.2"/>
</svg>
