<svg width="420" height="315" viewBox="0 0 420 315" fill="none" xmlns="http://www.w3.org/2000/svg">
<path d="M216.069 298.52C216.029 299.766 216.362 300.995 217.026 302.05C217.689 303.105 218.652 303.938 219.792 304.443C220.932 304.947 222.196 305.099 223.423 304.881C224.65 304.662 225.783 304.081 226.679 303.214C227.574 302.347 228.189 301.232 228.447 300.013C228.704 298.793 228.592 297.525 228.124 296.37C227.656 295.215 226.853 294.226 225.82 293.529C224.786 292.833 223.568 292.461 222.322 292.462C220.689 292.436 219.114 293.06 217.941 294.197C216.769 295.333 216.095 296.888 216.069 298.52Z" fill="#FFBC47"/>
<g opacity="0.21">
<g opacity="0.21">
<path opacity="0.21" d="M382.452 48.1845H347.681V48.8775H382.452V48.1845Z" fill="#4079E2"/>
<path opacity="0.21" d="M382.452 41.2755H347.681V41.9685H382.452V41.2755Z" fill="#4079E2"/>
<path opacity="0.21" d="M382.452 34.3717H347.681V35.0648H382.452V34.3717Z" fill="#4079E2"/>
<path opacity="0.21" d="M382.452 27.4628H347.681V28.1558H382.452V27.4628Z" fill="#4079E2"/>
<path opacity="0.21" d="M382.452 20.559H347.681V21.252H382.452V20.559Z" fill="#4079E2"/>
<path opacity="0.21" d="M382.452 44.73H347.681V45.423H382.452V44.73Z" fill="#4079E2"/>
<path opacity="0.21" d="M382.452 37.821H347.681V38.514H382.452V37.821Z" fill="#4079E2"/>
<path opacity="0.21" d="M382.452 30.9173H347.681V31.6103H382.452V30.9173Z" fill="#4079E2"/>
<path opacity="0.21" d="M382.452 24.0082H347.681V24.7012H382.452V24.0082Z" fill="#4079E2"/>
<path opacity="0.21" d="M382.452 17.1045H347.681V17.7975H382.452V17.1045Z" fill="#4079E2"/>
<path opacity="0.21" d="M347.923 48.1845H313.152V48.8775H347.923V48.1845Z" fill="#4079E2"/>
<path opacity="0.21" d="M347.923 41.2755H313.152V41.9685H347.923V41.2755Z" fill="#4079E2"/>
<path opacity="0.21" d="M347.923 34.3717H313.152V35.0648H347.923V34.3717Z" fill="#4079E2"/>
<path opacity="0.21" d="M347.923 27.4628H313.152V28.1558H347.923V27.4628Z" fill="#4079E2"/>
<path opacity="0.21" d="M347.923 20.559H313.152V21.252H347.923V20.559Z" fill="#4079E2"/>
<path opacity="0.21" d="M347.923 44.73H313.152V45.423H347.923V44.73Z" fill="#4079E2"/>
<path opacity="0.21" d="M347.923 37.821H313.152V38.514H347.923V37.821Z" fill="#4079E2"/>
<path opacity="0.21" d="M347.923 30.9173H313.152V31.6103H347.923V30.9173Z" fill="#4079E2"/>
<path opacity="0.21" d="M347.923 24.0082H313.152V24.7012H347.923V24.0082Z" fill="#4079E2"/>
<path opacity="0.21" d="M347.923 17.1045H313.152V17.7975H347.923V17.1045Z" fill="#4079E2"/>
<path opacity="0.21" d="M313.388 48.1845H278.617V48.8775H313.388V48.1845Z" fill="#4079E2"/>
<path opacity="0.21" d="M313.388 41.2755H278.617V41.9685H313.388V41.2755Z" fill="#4079E2"/>
<path opacity="0.21" d="M313.388 34.3717H278.617V35.0648H313.388V34.3717Z" fill="#4079E2"/>
<path opacity="0.21" d="M313.388 27.4628H278.617V28.1558H313.388V27.4628Z" fill="#4079E2"/>
<path opacity="0.21" d="M313.388 20.559H278.617V21.252H313.388V20.559Z" fill="#4079E2"/>
<path opacity="0.21" d="M313.388 44.73H278.617V45.423H313.388V44.73Z" fill="#4079E2"/>
<path opacity="0.21" d="M313.388 37.821H278.617V38.514H313.388V37.821Z" fill="#4079E2"/>
<path opacity="0.21" d="M313.388 30.9173H278.617V31.6103H313.388V30.9173Z" fill="#4079E2"/>
<path opacity="0.21" d="M313.388 24.0082H278.617V24.7012H313.388V24.0082Z" fill="#4079E2"/>
<path opacity="0.21" d="M313.388 17.1045H278.617V17.7975H313.388V17.1045Z" fill="#4079E2"/>
</g>
<g opacity="0.21">
<path opacity="0.21" d="M382.452 82.7138H347.681V83.4068H382.452V82.7138Z" fill="#4079E2"/>
<path opacity="0.21" d="M382.452 75.81H347.681V76.503H382.452V75.81Z" fill="#4079E2"/>
<path opacity="0.21" d="M382.452 68.901H347.681V69.594H382.452V68.901Z" fill="#4079E2"/>
<path opacity="0.21" d="M382.452 61.9972H347.681V62.6903H382.452V61.9972Z" fill="#4079E2"/>
<path opacity="0.21" d="M382.452 55.0883H347.681V55.7813H382.452V55.0883Z" fill="#4079E2"/>
<path opacity="0.21" d="M382.452 79.2645H347.681V79.9575H382.452V79.2645Z" fill="#4079E2"/>
<path opacity="0.21" d="M382.452 72.3555H347.681V73.0485H382.452V72.3555Z" fill="#4079E2"/>
<path opacity="0.21" d="M382.452 65.4518H347.681V66.1447H382.452V65.4518Z" fill="#4079E2"/>
<path opacity="0.21" d="M382.452 58.5428H347.681V59.2358H382.452V58.5428Z" fill="#4079E2"/>
<path opacity="0.21" d="M382.452 51.639H347.681V52.332H382.452V51.639Z" fill="#4079E2"/>
<path opacity="0.21" d="M347.923 82.7138H313.152V83.4068H347.923V82.7138Z" fill="#4079E2"/>
<path opacity="0.21" d="M347.923 75.81H313.152V76.503H347.923V75.81Z" fill="#4079E2"/>
<path opacity="0.21" d="M347.923 68.901H313.152V69.594H347.923V68.901Z" fill="#4079E2"/>
<path opacity="0.21" d="M347.923 61.9972H313.152V62.6903H347.923V61.9972Z" fill="#4079E2"/>
<path opacity="0.21" d="M347.923 55.0883H313.152V55.7813H347.923V55.0883Z" fill="#4079E2"/>
<path opacity="0.21" d="M347.923 79.2645H313.152V79.9575H347.923V79.2645Z" fill="#4079E2"/>
<path opacity="0.21" d="M347.923 72.3555H313.152V73.0485H347.923V72.3555Z" fill="#4079E2"/>
<path opacity="0.21" d="M347.923 65.4518H313.152V66.1447H347.923V65.4518Z" fill="#4079E2"/>
<path opacity="0.21" d="M347.923 58.5428H313.152V59.2358H347.923V58.5428Z" fill="#4079E2"/>
<path opacity="0.21" d="M347.923 51.639H313.152V52.332H347.923V51.639Z" fill="#4079E2"/>
<path opacity="0.21" d="M313.388 82.7138H278.617V83.4068H313.388V82.7138Z" fill="#4079E2"/>
<path opacity="0.21" d="M313.388 75.81H278.617V76.503H313.388V75.81Z" fill="#4079E2"/>
<path opacity="0.21" d="M313.388 68.901H278.617V69.594H313.388V68.901Z" fill="#4079E2"/>
<path opacity="0.21" d="M313.388 61.9972H278.617V62.6903H313.388V61.9972Z" fill="#4079E2"/>
<path opacity="0.21" d="M313.388 55.0883H278.617V55.7813H313.388V55.0883Z" fill="#4079E2"/>
<path opacity="0.21" d="M313.388 79.2645H278.617V79.9575H313.388V79.2645Z" fill="#4079E2"/>
<path opacity="0.21" d="M313.388 72.3555H278.617V73.0485H313.388V72.3555Z" fill="#4079E2"/>
<path opacity="0.21" d="M313.388 65.4518H278.617V66.1447H313.388V65.4518Z" fill="#4079E2"/>
<path opacity="0.21" d="M313.388 58.5428H278.617V59.2358H313.388V58.5428Z" fill="#4079E2"/>
<path opacity="0.21" d="M313.388 51.639H278.617V52.332H313.388V51.639Z" fill="#4079E2"/>
</g>
<g opacity="0.21">
<path opacity="0.21" d="M382.452 117.248H347.681V117.941H382.452V117.248Z" fill="#4079E2"/>
<path opacity="0.21" d="M382.452 110.339H347.681V111.032H382.452V110.339Z" fill="#4079E2"/>
<path opacity="0.21" d="M382.452 103.435H347.681V104.128H382.452V103.435Z" fill="#4079E2"/>
<path opacity="0.21" d="M382.452 96.5265H347.681V97.2195H382.452V96.5265Z" fill="#4079E2"/>
<path opacity="0.21" d="M382.452 89.6227H347.681V90.3158H382.452V89.6227Z" fill="#4079E2"/>
<path opacity="0.21" d="M382.452 113.794H347.681V114.487H382.452V113.794Z" fill="#4079E2"/>
<path opacity="0.21" d="M382.452 106.89H347.681V107.583H382.452V106.89Z" fill="#4079E2"/>
<path opacity="0.21" d="M382.452 99.981H347.681V100.674H382.452V99.981Z" fill="#4079E2"/>
<path opacity="0.21" d="M382.452 93.0772H347.681V93.7702H382.452V93.0772Z" fill="#4079E2"/>
<path opacity="0.21" d="M382.452 86.1682H347.681V86.8613H382.452V86.1682Z" fill="#4079E2"/>
<path opacity="0.21" d="M347.923 117.248H313.152V117.941H347.923V117.248Z" fill="#4079E2"/>
<path opacity="0.21" d="M347.923 110.339H313.152V111.032H347.923V110.339Z" fill="#4079E2"/>
<path opacity="0.21" d="M347.923 103.435H313.152V104.128H347.923V103.435Z" fill="#4079E2"/>
<path opacity="0.21" d="M347.923 96.5265H313.152V97.2195H347.923V96.5265Z" fill="#4079E2"/>
<path opacity="0.21" d="M347.923 89.6227H313.152V90.3158H347.923V89.6227Z" fill="#4079E2"/>
<path opacity="0.21" d="M347.923 113.794H313.152V114.487H347.923V113.794Z" fill="#4079E2"/>
<path opacity="0.21" d="M347.923 106.89H313.152V107.583H347.923V106.89Z" fill="#4079E2"/>
<path opacity="0.21" d="M347.923 99.981H313.152V100.674H347.923V99.981Z" fill="#4079E2"/>
<path opacity="0.21" d="M347.923 93.0772H313.152V93.7702H347.923V93.0772Z" fill="#4079E2"/>
<path opacity="0.21" d="M347.923 86.1682H313.152V86.8613H347.923V86.1682Z" fill="#4079E2"/>
<path opacity="0.21" d="M313.388 117.248H278.617V117.941H313.388V117.248Z" fill="#4079E2"/>
<path opacity="0.21" d="M313.388 110.339H278.617V111.032H313.388V110.339Z" fill="#4079E2"/>
<path opacity="0.21" d="M313.388 103.435H278.617V104.128H313.388V103.435Z" fill="#4079E2"/>
<path opacity="0.21" d="M313.388 96.5265H278.617V97.2195H313.388V96.5265Z" fill="#4079E2"/>
<path opacity="0.21" d="M313.388 89.6227H278.617V90.3158H313.388V89.6227Z" fill="#4079E2"/>
<path opacity="0.21" d="M313.388 113.794H278.617V114.487H313.388V113.794Z" fill="#4079E2"/>
<path opacity="0.21" d="M313.388 106.89H278.617V107.583H313.388V106.89Z" fill="#4079E2"/>
<path opacity="0.21" d="M313.388 99.981H278.617V100.674H313.388V99.981Z" fill="#4079E2"/>
<path opacity="0.21" d="M313.388 93.0772H278.617V93.7702H313.388V93.0772Z" fill="#4079E2"/>
<path opacity="0.21" d="M313.388 86.1682H278.617V86.8613H313.388V86.1682Z" fill="#4079E2"/>
</g>
<g opacity="0.21">
<path opacity="0.21" d="M382.452 151.778H347.681V152.471H382.452V151.778Z" fill="#4079E2"/>
<path opacity="0.21" d="M382.452 144.874H347.681V145.567H382.452V144.874Z" fill="#4079E2"/>
<path opacity="0.21" d="M382.452 137.965H347.681V138.658H382.452V137.965Z" fill="#4079E2"/>
<path opacity="0.21" d="M382.452 131.061H347.681V131.754H382.452V131.061Z" fill="#4079E2"/>
<path opacity="0.21" d="M382.452 124.152H347.681V124.845H382.452V124.152Z" fill="#4079E2"/>
<path opacity="0.21" d="M382.452 148.328H347.681V149.021H382.452V148.328Z" fill="#4079E2"/>
<path opacity="0.21" d="M382.452 141.419H347.681V142.112H382.452V141.419Z" fill="#4079E2"/>
<path opacity="0.21" d="M382.452 134.516H347.681V135.208H382.452V134.516Z" fill="#4079E2"/>
<path opacity="0.21" d="M382.452 127.607H347.681V128.3H382.452V127.607Z" fill="#4079E2"/>
<path opacity="0.21" d="M382.452 120.703H347.681V121.396H382.452V120.703Z" fill="#4079E2"/>
<path opacity="0.21" d="M347.923 151.778H313.152V152.471H347.923V151.778Z" fill="#4079E2"/>
<path opacity="0.21" d="M347.923 144.874H313.152V145.567H347.923V144.874Z" fill="#4079E2"/>
<path opacity="0.21" d="M347.923 137.965H313.152V138.658H347.923V137.965Z" fill="#4079E2"/>
<path opacity="0.21" d="M347.923 131.061H313.152V131.754H347.923V131.061Z" fill="#4079E2"/>
<path opacity="0.21" d="M347.923 124.152H313.152V124.845H347.923V124.152Z" fill="#4079E2"/>
<path opacity="0.21" d="M347.923 148.328H313.152V149.021H347.923V148.328Z" fill="#4079E2"/>
<path opacity="0.21" d="M347.923 141.419H313.152V142.112H347.923V141.419Z" fill="#4079E2"/>
<path opacity="0.21" d="M347.923 134.516H313.152V135.208H347.923V134.516Z" fill="#4079E2"/>
<path opacity="0.21" d="M347.923 127.607H313.152V128.3H347.923V127.607Z" fill="#4079E2"/>
<path opacity="0.21" d="M347.923 120.703H313.152V121.396H347.923V120.703Z" fill="#4079E2"/>
<path opacity="0.21" d="M313.388 151.778H278.617V152.471H313.388V151.778Z" fill="#4079E2"/>
<path opacity="0.21" d="M313.388 144.874H278.617V145.567H313.388V144.874Z" fill="#4079E2"/>
<path opacity="0.21" d="M313.388 137.965H278.617V138.658H313.388V137.965Z" fill="#4079E2"/>
<path opacity="0.21" d="M313.388 131.061H278.617V131.754H313.388V131.061Z" fill="#4079E2"/>
<path opacity="0.21" d="M313.388 124.152H278.617V124.845H313.388V124.152Z" fill="#4079E2"/>
<path opacity="0.21" d="M313.388 148.328H278.617V149.021H313.388V148.328Z" fill="#4079E2"/>
<path opacity="0.21" d="M313.388 141.419H278.617V142.112H313.388V141.419Z" fill="#4079E2"/>
<path opacity="0.21" d="M313.388 134.516H278.617V135.208H313.388V134.516Z" fill="#4079E2"/>
<path opacity="0.21" d="M313.388 127.607H278.617V128.3H313.388V127.607Z" fill="#4079E2"/>
<path opacity="0.21" d="M313.388 120.703H278.617V121.396H313.388V120.703Z" fill="#4079E2"/>
</g>
<g opacity="0.21">
<path opacity="0.21" d="M347.923 48.1845H313.152V48.8775H347.923V48.1845Z" fill="#4079E2"/>
<path opacity="0.21" d="M347.923 41.2755H313.152V41.9685H347.923V41.2755Z" fill="#4079E2"/>
<path opacity="0.21" d="M347.923 34.3717H313.152V35.0648H347.923V34.3717Z" fill="#4079E2"/>
<path opacity="0.21" d="M347.923 27.4628H313.152V28.1558H347.923V27.4628Z" fill="#4079E2"/>
<path opacity="0.21" d="M347.923 20.559H313.152V21.252H347.923V20.559Z" fill="#4079E2"/>
<path opacity="0.21" d="M347.923 44.73H313.152V45.423H347.923V44.73Z" fill="#4079E2"/>
<path opacity="0.21" d="M347.923 37.821H313.152V38.514H347.923V37.821Z" fill="#4079E2"/>
<path opacity="0.21" d="M347.923 30.9173H313.152V31.6103H347.923V30.9173Z" fill="#4079E2"/>
<path opacity="0.21" d="M347.923 24.0082H313.152V24.7012H347.923V24.0082Z" fill="#4079E2"/>
<path opacity="0.21" d="M347.923 17.1045H313.152V17.7975H347.923V17.1045Z" fill="#4079E2"/>
<path opacity="0.21" d="M313.388 48.1845H278.617V48.8775H313.388V48.1845Z" fill="#4079E2"/>
<path opacity="0.21" d="M313.388 41.2755H278.617V41.9685H313.388V41.2755Z" fill="#4079E2"/>
<path opacity="0.21" d="M313.388 34.3717H278.617V35.0648H313.388V34.3717Z" fill="#4079E2"/>
<path opacity="0.21" d="M313.388 27.4628H278.617V28.1558H313.388V27.4628Z" fill="#4079E2"/>
<path opacity="0.21" d="M313.388 20.559H278.617V21.252H313.388V20.559Z" fill="#4079E2"/>
<path opacity="0.21" d="M313.388 44.73H278.617V45.423H313.388V44.73Z" fill="#4079E2"/>
<path opacity="0.21" d="M313.388 37.821H278.617V38.514H313.388V37.821Z" fill="#4079E2"/>
<path opacity="0.21" d="M313.388 30.9173H278.617V31.6103H313.388V30.9173Z" fill="#4079E2"/>
<path opacity="0.21" d="M313.388 24.0082H278.617V24.7012H313.388V24.0082Z" fill="#4079E2"/>
<path opacity="0.21" d="M313.388 17.1045H278.617V17.7975H313.388V17.1045Z" fill="#4079E2"/>
<path opacity="0.21" d="M278.854 48.1845H244.083V48.8775H278.854V48.1845Z" fill="#4079E2"/>
<path opacity="0.21" d="M278.854 41.2755H244.083V41.9685H278.854V41.2755Z" fill="#4079E2"/>
<path opacity="0.21" d="M278.854 34.3717H244.083V35.0648H278.854V34.3717Z" fill="#4079E2"/>
<path opacity="0.21" d="M278.854 27.4628H244.083V28.1558H278.854V27.4628Z" fill="#4079E2"/>
<path opacity="0.21" d="M278.854 20.559H244.083V21.252H278.854V20.559Z" fill="#4079E2"/>
<path opacity="0.21" d="M278.854 44.73H244.083V45.423H278.854V44.73Z" fill="#4079E2"/>
<path opacity="0.21" d="M278.854 37.821H244.083V38.514H278.854V37.821Z" fill="#4079E2"/>
<path opacity="0.21" d="M278.854 30.9173H244.083V31.6103H278.854V30.9173Z" fill="#4079E2"/>
<path opacity="0.21" d="M278.854 24.0082H244.083V24.7012H278.854V24.0082Z" fill="#4079E2"/>
<path opacity="0.21" d="M278.854 17.1045H244.083V17.7975H278.854V17.1045Z" fill="#4079E2"/>
</g>
<g opacity="0.21">
<path opacity="0.21" d="M347.923 82.7138H313.152V83.4068H347.923V82.7138Z" fill="#4079E2"/>
<path opacity="0.21" d="M347.923 75.81H313.152V76.503H347.923V75.81Z" fill="#4079E2"/>
<path opacity="0.21" d="M347.923 68.901H313.152V69.594H347.923V68.901Z" fill="#4079E2"/>
<path opacity="0.21" d="M347.923 61.9972H313.152V62.6903H347.923V61.9972Z" fill="#4079E2"/>
<path opacity="0.21" d="M347.923 55.0883H313.152V55.7813H347.923V55.0883Z" fill="#4079E2"/>
<path opacity="0.21" d="M347.923 79.2645H313.152V79.9575H347.923V79.2645Z" fill="#4079E2"/>
<path opacity="0.21" d="M347.923 72.3555H313.152V73.0485H347.923V72.3555Z" fill="#4079E2"/>
<path opacity="0.21" d="M347.923 65.4518H313.152V66.1447H347.923V65.4518Z" fill="#4079E2"/>
<path opacity="0.21" d="M347.923 58.5428H313.152V59.2358H347.923V58.5428Z" fill="#4079E2"/>
<path opacity="0.21" d="M347.923 51.639H313.152V52.332H347.923V51.639Z" fill="#4079E2"/>
<path opacity="0.21" d="M313.388 82.7138H278.617V83.4068H313.388V82.7138Z" fill="#4079E2"/>
<path opacity="0.21" d="M313.388 75.81H278.617V76.503H313.388V75.81Z" fill="#4079E2"/>
<path opacity="0.21" d="M313.388 68.901H278.617V69.594H313.388V68.901Z" fill="#4079E2"/>
<path opacity="0.21" d="M313.388 61.9972H278.617V62.6903H313.388V61.9972Z" fill="#4079E2"/>
<path opacity="0.21" d="M313.388 55.0883H278.617V55.7813H313.388V55.0883Z" fill="#4079E2"/>
<path opacity="0.21" d="M313.388 79.2645H278.617V79.9575H313.388V79.2645Z" fill="#4079E2"/>
<path opacity="0.21" d="M313.388 72.3555H278.617V73.0485H313.388V72.3555Z" fill="#4079E2"/>
<path opacity="0.21" d="M313.388 65.4518H278.617V66.1447H313.388V65.4518Z" fill="#4079E2"/>
<path opacity="0.21" d="M313.388 58.5428H278.617V59.2358H313.388V58.5428Z" fill="#4079E2"/>
<path opacity="0.21" d="M313.388 51.639H278.617V52.332H313.388V51.639Z" fill="#4079E2"/>
<path opacity="0.21" d="M278.854 82.7138H244.083V83.4068H278.854V82.7138Z" fill="#4079E2"/>
<path opacity="0.21" d="M278.854 75.81H244.083V76.503H278.854V75.81Z" fill="#4079E2"/>
<path opacity="0.21" d="M278.854 68.901H244.083V69.594H278.854V68.901Z" fill="#4079E2"/>
<path opacity="0.21" d="M278.854 61.9972H244.083V62.6903H278.854V61.9972Z" fill="#4079E2"/>
<path opacity="0.21" d="M278.854 55.0883H244.083V55.7813H278.854V55.0883Z" fill="#4079E2"/>
<path opacity="0.21" d="M278.854 79.2645H244.083V79.9575H278.854V79.2645Z" fill="#4079E2"/>
<path opacity="0.21" d="M278.854 72.3555H244.083V73.0485H278.854V72.3555Z" fill="#4079E2"/>
<path opacity="0.21" d="M278.854 65.4518H244.083V66.1447H278.854V65.4518Z" fill="#4079E2"/>
<path opacity="0.21" d="M278.854 58.5428H244.083V59.2358H278.854V58.5428Z" fill="#4079E2"/>
<path opacity="0.21" d="M278.854 51.639H244.083V52.332H278.854V51.639Z" fill="#4079E2"/>
</g>
<g opacity="0.21">
<path opacity="0.21" d="M347.923 117.248H313.152V117.941H347.923V117.248Z" fill="#4079E2"/>
<path opacity="0.21" d="M347.923 110.339H313.152V111.032H347.923V110.339Z" fill="#4079E2"/>
<path opacity="0.21" d="M347.923 103.435H313.152V104.128H347.923V103.435Z" fill="#4079E2"/>
<path opacity="0.21" d="M347.923 96.5265H313.152V97.2195H347.923V96.5265Z" fill="#4079E2"/>
<path opacity="0.21" d="M347.923 89.6227H313.152V90.3158H347.923V89.6227Z" fill="#4079E2"/>
<path opacity="0.21" d="M347.923 113.794H313.152V114.487H347.923V113.794Z" fill="#4079E2"/>
<path opacity="0.21" d="M347.923 106.89H313.152V107.583H347.923V106.89Z" fill="#4079E2"/>
<path opacity="0.21" d="M347.923 99.981H313.152V100.674H347.923V99.981Z" fill="#4079E2"/>
<path opacity="0.21" d="M347.923 93.0772H313.152V93.7702H347.923V93.0772Z" fill="#4079E2"/>
<path opacity="0.21" d="M347.923 86.1682H313.152V86.8613H347.923V86.1682Z" fill="#4079E2"/>
<path opacity="0.21" d="M313.388 117.248H278.617V117.941H313.388V117.248Z" fill="#4079E2"/>
<path opacity="0.21" d="M313.388 110.339H278.617V111.032H313.388V110.339Z" fill="#4079E2"/>
<path opacity="0.21" d="M313.388 103.435H278.617V104.128H313.388V103.435Z" fill="#4079E2"/>
<path opacity="0.21" d="M313.388 96.5265H278.617V97.2195H313.388V96.5265Z" fill="#4079E2"/>
<path opacity="0.21" d="M313.388 89.6227H278.617V90.3158H313.388V89.6227Z" fill="#4079E2"/>
<path opacity="0.21" d="M313.388 113.794H278.617V114.487H313.388V113.794Z" fill="#4079E2"/>
<path opacity="0.21" d="M313.388 106.89H278.617V107.583H313.388V106.89Z" fill="#4079E2"/>
<path opacity="0.21" d="M313.388 99.981H278.617V100.674H313.388V99.981Z" fill="#4079E2"/>
<path opacity="0.21" d="M313.388 93.0772H278.617V93.7702H313.388V93.0772Z" fill="#4079E2"/>
<path opacity="0.21" d="M313.388 86.1682H278.617V86.8613H313.388V86.1682Z" fill="#4079E2"/>
<path opacity="0.21" d="M278.854 117.248H244.083V117.941H278.854V117.248Z" fill="#4079E2"/>
<path opacity="0.21" d="M278.854 110.339H244.083V111.032H278.854V110.339Z" fill="#4079E2"/>
<path opacity="0.21" d="M278.854 103.435H244.083V104.128H278.854V103.435Z" fill="#4079E2"/>
<path opacity="0.21" d="M278.854 96.5265H244.083V97.2195H278.854V96.5265Z" fill="#4079E2"/>
<path opacity="0.21" d="M278.854 89.6227H244.083V90.3158H278.854V89.6227Z" fill="#4079E2"/>
<path opacity="0.21" d="M278.854 113.794H244.083V114.487H278.854V113.794Z" fill="#4079E2"/>
<path opacity="0.21" d="M278.854 106.89H244.083V107.583H278.854V106.89Z" fill="#4079E2"/>
<path opacity="0.21" d="M278.854 99.981H244.083V100.674H278.854V99.981Z" fill="#4079E2"/>
<path opacity="0.21" d="M278.854 93.0772H244.083V93.7702H278.854V93.0772Z" fill="#4079E2"/>
<path opacity="0.21" d="M278.854 86.1682H244.083V86.8613H278.854V86.1682Z" fill="#4079E2"/>
</g>
<g opacity="0.21">
<path opacity="0.21" d="M347.923 151.778H313.152V152.471H347.923V151.778Z" fill="#4079E2"/>
<path opacity="0.21" d="M347.923 144.874H313.152V145.567H347.923V144.874Z" fill="#4079E2"/>
<path opacity="0.21" d="M347.923 137.965H313.152V138.658H347.923V137.965Z" fill="#4079E2"/>
<path opacity="0.21" d="M347.923 131.061H313.152V131.754H347.923V131.061Z" fill="#4079E2"/>
<path opacity="0.21" d="M347.923 124.152H313.152V124.845H347.923V124.152Z" fill="#4079E2"/>
<path opacity="0.21" d="M347.923 148.328H313.152V149.021H347.923V148.328Z" fill="#4079E2"/>
<path opacity="0.21" d="M347.923 141.419H313.152V142.112H347.923V141.419Z" fill="#4079E2"/>
<path opacity="0.21" d="M347.923 134.516H313.152V135.208H347.923V134.516Z" fill="#4079E2"/>
<path opacity="0.21" d="M347.923 127.607H313.152V128.3H347.923V127.607Z" fill="#4079E2"/>
<path opacity="0.21" d="M347.923 120.703H313.152V121.396H347.923V120.703Z" fill="#4079E2"/>
<path opacity="0.21" d="M313.388 151.778H278.617V152.471H313.388V151.778Z" fill="#4079E2"/>
<path opacity="0.21" d="M313.388 144.874H278.617V145.567H313.388V144.874Z" fill="#4079E2"/>
<path opacity="0.21" d="M313.388 137.965H278.617V138.658H313.388V137.965Z" fill="#4079E2"/>
<path opacity="0.21" d="M313.388 131.061H278.617V131.754H313.388V131.061Z" fill="#4079E2"/>
<path opacity="0.21" d="M313.388 124.152H278.617V124.845H313.388V124.152Z" fill="#4079E2"/>
<path opacity="0.21" d="M313.388 148.328H278.617V149.021H313.388V148.328Z" fill="#4079E2"/>
<path opacity="0.21" d="M313.388 141.419H278.617V142.112H313.388V141.419Z" fill="#4079E2"/>
<path opacity="0.21" d="M313.388 134.516H278.617V135.208H313.388V134.516Z" fill="#4079E2"/>
<path opacity="0.21" d="M313.388 127.607H278.617V128.3H313.388V127.607Z" fill="#4079E2"/>
<path opacity="0.21" d="M313.388 120.703H278.617V121.396H313.388V120.703Z" fill="#4079E2"/>
<path opacity="0.21" d="M278.854 151.778H244.083V152.471H278.854V151.778Z" fill="#4079E2"/>
<path opacity="0.21" d="M278.854 144.874H244.083V145.567H278.854V144.874Z" fill="#4079E2"/>
<path opacity="0.21" d="M278.854 137.965H244.083V138.658H278.854V137.965Z" fill="#4079E2"/>
<path opacity="0.21" d="M278.854 131.061H244.083V131.754H278.854V131.061Z" fill="#4079E2"/>
<path opacity="0.21" d="M278.854 124.152H244.083V124.845H278.854V124.152Z" fill="#4079E2"/>
<path opacity="0.21" d="M278.854 148.328H244.083V149.021H278.854V148.328Z" fill="#4079E2"/>
<path opacity="0.21" d="M278.854 141.419H244.083V142.112H278.854V141.419Z" fill="#4079E2"/>
<path opacity="0.21" d="M278.854 134.516H244.083V135.208H278.854V134.516Z" fill="#4079E2"/>
<path opacity="0.21" d="M278.854 127.607H244.083V128.3H278.854V127.607Z" fill="#4079E2"/>
<path opacity="0.21" d="M278.854 120.703H244.083V121.396H278.854V120.703Z" fill="#4079E2"/>
</g>
<g opacity="0.21">
<path opacity="0.21" d="M313.388 48.1845H278.617V48.8775H313.388V48.1845Z" fill="#4079E2"/>
<path opacity="0.21" d="M313.388 41.2755H278.617V41.9685H313.388V41.2755Z" fill="#4079E2"/>
<path opacity="0.21" d="M313.388 34.3717H278.617V35.0648H313.388V34.3717Z" fill="#4079E2"/>
<path opacity="0.21" d="M313.388 27.4628H278.617V28.1558H313.388V27.4628Z" fill="#4079E2"/>
<path opacity="0.21" d="M313.388 20.559H278.617V21.252H313.388V20.559Z" fill="#4079E2"/>
<path opacity="0.21" d="M313.388 44.73H278.617V45.423H313.388V44.73Z" fill="#4079E2"/>
<path opacity="0.21" d="M313.388 37.821H278.617V38.514H313.388V37.821Z" fill="#4079E2"/>
<path opacity="0.21" d="M313.388 30.9173H278.617V31.6103H313.388V30.9173Z" fill="#4079E2"/>
<path opacity="0.21" d="M313.388 24.0082H278.617V24.7012H313.388V24.0082Z" fill="#4079E2"/>
<path opacity="0.21" d="M313.388 17.1045H278.617V17.7975H313.388V17.1045Z" fill="#4079E2"/>
<path opacity="0.21" d="M278.854 48.1845H244.083V48.8775H278.854V48.1845Z" fill="#4079E2"/>
<path opacity="0.21" d="M278.854 41.2755H244.083V41.9685H278.854V41.2755Z" fill="#4079E2"/>
<path opacity="0.21" d="M278.854 34.3717H244.083V35.0648H278.854V34.3717Z" fill="#4079E2"/>
<path opacity="0.21" d="M278.854 27.4628H244.083V28.1558H278.854V27.4628Z" fill="#4079E2"/>
<path opacity="0.21" d="M278.854 20.559H244.083V21.252H278.854V20.559Z" fill="#4079E2"/>
<path opacity="0.21" d="M278.854 44.73H244.083V45.423H278.854V44.73Z" fill="#4079E2"/>
<path opacity="0.21" d="M278.854 37.821H244.083V38.514H278.854V37.821Z" fill="#4079E2"/>
<path opacity="0.21" d="M278.854 30.9173H244.083V31.6103H278.854V30.9173Z" fill="#4079E2"/>
<path opacity="0.21" d="M278.854 24.0082H244.083V24.7012H278.854V24.0082Z" fill="#4079E2"/>
<path opacity="0.21" d="M278.854 17.1045H244.083V17.7975H278.854V17.1045Z" fill="#4079E2"/>
<path opacity="0.21" d="M244.324 48.1845H209.554V48.8775H244.324V48.1845Z" fill="#4079E2"/>
<path opacity="0.21" d="M244.324 41.2755H209.554V41.9685H244.324V41.2755Z" fill="#4079E2"/>
<path opacity="0.21" d="M244.324 34.3717H209.554V35.0648H244.324V34.3717Z" fill="#4079E2"/>
<path opacity="0.21" d="M244.324 27.4628H209.554V28.1558H244.324V27.4628Z" fill="#4079E2"/>
<path opacity="0.21" d="M244.324 20.559H209.554V21.252H244.324V20.559Z" fill="#4079E2"/>
<path opacity="0.21" d="M244.324 44.73H209.554V45.423H244.324V44.73Z" fill="#4079E2"/>
<path opacity="0.21" d="M244.324 37.821H209.554V38.514H244.324V37.821Z" fill="#4079E2"/>
<path opacity="0.21" d="M244.324 30.9173H209.554V31.6103H244.324V30.9173Z" fill="#4079E2"/>
<path opacity="0.21" d="M244.324 24.0082H209.554V24.7012H244.324V24.0082Z" fill="#4079E2"/>
<path opacity="0.21" d="M244.324 17.1045H209.554V17.7975H244.324V17.1045Z" fill="#4079E2"/>
</g>
<g opacity="0.21">
<path opacity="0.21" d="M313.388 82.7138H278.617V83.4068H313.388V82.7138Z" fill="#4079E2"/>
<path opacity="0.21" d="M313.388 75.81H278.617V76.503H313.388V75.81Z" fill="#4079E2"/>
<path opacity="0.21" d="M313.388 68.901H278.617V69.594H313.388V68.901Z" fill="#4079E2"/>
<path opacity="0.21" d="M313.388 61.9972H278.617V62.6903H313.388V61.9972Z" fill="#4079E2"/>
<path opacity="0.21" d="M313.388 55.0883H278.617V55.7813H313.388V55.0883Z" fill="#4079E2"/>
<path opacity="0.21" d="M313.388 79.2645H278.617V79.9575H313.388V79.2645Z" fill="#4079E2"/>
<path opacity="0.21" d="M313.388 72.3555H278.617V73.0485H313.388V72.3555Z" fill="#4079E2"/>
<path opacity="0.21" d="M313.388 65.4518H278.617V66.1447H313.388V65.4518Z" fill="#4079E2"/>
<path opacity="0.21" d="M313.388 58.5428H278.617V59.2358H313.388V58.5428Z" fill="#4079E2"/>
<path opacity="0.21" d="M313.388 51.639H278.617V52.332H313.388V51.639Z" fill="#4079E2"/>
<path opacity="0.21" d="M278.854 82.7138H244.083V83.4068H278.854V82.7138Z" fill="#4079E2"/>
<path opacity="0.21" d="M278.854 75.81H244.083V76.503H278.854V75.81Z" fill="#4079E2"/>
<path opacity="0.21" d="M278.854 68.901H244.083V69.594H278.854V68.901Z" fill="#4079E2"/>
<path opacity="0.21" d="M278.854 61.9972H244.083V62.6903H278.854V61.9972Z" fill="#4079E2"/>
<path opacity="0.21" d="M278.854 55.0883H244.083V55.7813H278.854V55.0883Z" fill="#4079E2"/>
<path opacity="0.21" d="M278.854 79.2645H244.083V79.9575H278.854V79.2645Z" fill="#4079E2"/>
<path opacity="0.21" d="M278.854 72.3555H244.083V73.0485H278.854V72.3555Z" fill="#4079E2"/>
<path opacity="0.21" d="M278.854 65.4518H244.083V66.1447H278.854V65.4518Z" fill="#4079E2"/>
<path opacity="0.21" d="M278.854 58.5428H244.083V59.2358H278.854V58.5428Z" fill="#4079E2"/>
<path opacity="0.21" d="M278.854 51.639H244.083V52.332H278.854V51.639Z" fill="#4079E2"/>
<path opacity="0.21" d="M244.324 82.7138H209.554V83.4068H244.324V82.7138Z" fill="#4079E2"/>
<path opacity="0.21" d="M244.324 75.81H209.554V76.503H244.324V75.81Z" fill="#4079E2"/>
<path opacity="0.21" d="M244.324 68.901H209.554V69.594H244.324V68.901Z" fill="#4079E2"/>
<path opacity="0.21" d="M244.324 61.9972H209.554V62.6903H244.324V61.9972Z" fill="#4079E2"/>
<path opacity="0.21" d="M244.324 55.0883H209.554V55.7813H244.324V55.0883Z" fill="#4079E2"/>
<path opacity="0.21" d="M244.324 79.2645H209.554V79.9575H244.324V79.2645Z" fill="#4079E2"/>
<path opacity="0.21" d="M244.324 72.3555H209.554V73.0485H244.324V72.3555Z" fill="#4079E2"/>
<path opacity="0.21" d="M244.324 65.4518H209.554V66.1447H244.324V65.4518Z" fill="#4079E2"/>
<path opacity="0.21" d="M244.324 58.5428H209.554V59.2358H244.324V58.5428Z" fill="#4079E2"/>
<path opacity="0.21" d="M244.324 51.639H209.554V52.332H244.324V51.639Z" fill="#4079E2"/>
</g>
<g opacity="0.21">
<path opacity="0.21" d="M313.388 117.248H278.617V117.941H313.388V117.248Z" fill="#4079E2"/>
<path opacity="0.21" d="M313.388 110.339H278.617V111.032H313.388V110.339Z" fill="#4079E2"/>
<path opacity="0.21" d="M313.388 103.435H278.617V104.128H313.388V103.435Z" fill="#4079E2"/>
<path opacity="0.21" d="M313.388 96.5265H278.617V97.2195H313.388V96.5265Z" fill="#4079E2"/>
<path opacity="0.21" d="M313.388 89.6227H278.617V90.3158H313.388V89.6227Z" fill="#4079E2"/>
<path opacity="0.21" d="M313.388 113.794H278.617V114.487H313.388V113.794Z" fill="#4079E2"/>
<path opacity="0.21" d="M313.388 106.89H278.617V107.583H313.388V106.89Z" fill="#4079E2"/>
<path opacity="0.21" d="M313.388 99.981H278.617V100.674H313.388V99.981Z" fill="#4079E2"/>
<path opacity="0.21" d="M313.388 93.0772H278.617V93.7702H313.388V93.0772Z" fill="#4079E2"/>
<path opacity="0.21" d="M313.388 86.1682H278.617V86.8613H313.388V86.1682Z" fill="#4079E2"/>
<path opacity="0.21" d="M278.854 117.248H244.083V117.941H278.854V117.248Z" fill="#4079E2"/>
<path opacity="0.21" d="M278.854 110.339H244.083V111.032H278.854V110.339Z" fill="#4079E2"/>
<path opacity="0.21" d="M278.854 103.435H244.083V104.128H278.854V103.435Z" fill="#4079E2"/>
<path opacity="0.21" d="M278.854 96.5265H244.083V97.2195H278.854V96.5265Z" fill="#4079E2"/>
<path opacity="0.21" d="M278.854 89.6227H244.083V90.3158H278.854V89.6227Z" fill="#4079E2"/>
<path opacity="0.21" d="M278.854 113.794H244.083V114.487H278.854V113.794Z" fill="#4079E2"/>
<path opacity="0.21" d="M278.854 106.89H244.083V107.583H278.854V106.89Z" fill="#4079E2"/>
<path opacity="0.21" d="M278.854 99.981H244.083V100.674H278.854V99.981Z" fill="#4079E2"/>
<path opacity="0.21" d="M278.854 93.0772H244.083V93.7702H278.854V93.0772Z" fill="#4079E2"/>
<path opacity="0.21" d="M278.854 86.1682H244.083V86.8613H278.854V86.1682Z" fill="#4079E2"/>
<path opacity="0.21" d="M244.324 117.248H209.554V117.941H244.324V117.248Z" fill="#4079E2"/>
<path opacity="0.21" d="M244.324 110.339H209.554V111.032H244.324V110.339Z" fill="#4079E2"/>
<path opacity="0.21" d="M244.324 103.435H209.554V104.128H244.324V103.435Z" fill="#4079E2"/>
<path opacity="0.21" d="M244.324 96.5265H209.554V97.2195H244.324V96.5265Z" fill="#4079E2"/>
<path opacity="0.21" d="M244.324 89.6227H209.554V90.3158H244.324V89.6227Z" fill="#4079E2"/>
<path opacity="0.21" d="M244.324 113.794H209.554V114.487H244.324V113.794Z" fill="#4079E2"/>
<path opacity="0.21" d="M244.324 106.89H209.554V107.583H244.324V106.89Z" fill="#4079E2"/>
<path opacity="0.21" d="M244.324 99.981H209.554V100.674H244.324V99.981Z" fill="#4079E2"/>
<path opacity="0.21" d="M244.324 93.0772H209.554V93.7702H244.324V93.0772Z" fill="#4079E2"/>
<path opacity="0.21" d="M244.324 86.1682H209.554V86.8613H244.324V86.1682Z" fill="#4079E2"/>
</g>
<g opacity="0.21">
<path opacity="0.21" d="M313.388 151.778H278.617V152.471H313.388V151.778Z" fill="#4079E2"/>
<path opacity="0.21" d="M313.388 144.874H278.617V145.567H313.388V144.874Z" fill="#4079E2"/>
<path opacity="0.21" d="M313.388 137.965H278.617V138.658H313.388V137.965Z" fill="#4079E2"/>
<path opacity="0.21" d="M313.388 131.061H278.617V131.754H313.388V131.061Z" fill="#4079E2"/>
<path opacity="0.21" d="M313.388 124.152H278.617V124.845H313.388V124.152Z" fill="#4079E2"/>
<path opacity="0.21" d="M313.388 148.328H278.617V149.021H313.388V148.328Z" fill="#4079E2"/>
<path opacity="0.21" d="M313.388 141.419H278.617V142.112H313.388V141.419Z" fill="#4079E2"/>
<path opacity="0.21" d="M313.388 134.516H278.617V135.208H313.388V134.516Z" fill="#4079E2"/>
<path opacity="0.21" d="M313.388 127.607H278.617V128.3H313.388V127.607Z" fill="#4079E2"/>
<path opacity="0.21" d="M313.388 120.703H278.617V121.396H313.388V120.703Z" fill="#4079E2"/>
<path opacity="0.21" d="M278.854 151.778H244.083V152.471H278.854V151.778Z" fill="#4079E2"/>
<path opacity="0.21" d="M278.854 144.874H244.083V145.567H278.854V144.874Z" fill="#4079E2"/>
<path opacity="0.21" d="M278.854 137.965H244.083V138.658H278.854V137.965Z" fill="#4079E2"/>
<path opacity="0.21" d="M278.854 131.061H244.083V131.754H278.854V131.061Z" fill="#4079E2"/>
<path opacity="0.21" d="M278.854 124.152H244.083V124.845H278.854V124.152Z" fill="#4079E2"/>
<path opacity="0.21" d="M278.854 148.328H244.083V149.021H278.854V148.328Z" fill="#4079E2"/>
<path opacity="0.21" d="M278.854 141.419H244.083V142.112H278.854V141.419Z" fill="#4079E2"/>
<path opacity="0.21" d="M278.854 134.516H244.083V135.208H278.854V134.516Z" fill="#4079E2"/>
<path opacity="0.21" d="M278.854 127.607H244.083V128.3H278.854V127.607Z" fill="#4079E2"/>
<path opacity="0.21" d="M278.854 120.703H244.083V121.396H278.854V120.703Z" fill="#4079E2"/>
<path opacity="0.21" d="M244.324 151.778H209.554V152.471H244.324V151.778Z" fill="#4079E2"/>
<path opacity="0.21" d="M244.324 144.874H209.554V145.567H244.324V144.874Z" fill="#4079E2"/>
<path opacity="0.21" d="M244.324 137.965H209.554V138.658H244.324V137.965Z" fill="#4079E2"/>
<path opacity="0.21" d="M244.324 131.061H209.554V131.754H244.324V131.061Z" fill="#4079E2"/>
<path opacity="0.21" d="M244.324 124.152H209.554V124.845H244.324V124.152Z" fill="#4079E2"/>
<path opacity="0.21" d="M244.324 148.328H209.554V149.021H244.324V148.328Z" fill="#4079E2"/>
<path opacity="0.21" d="M244.324 141.419H209.554V142.112H244.324V141.419Z" fill="#4079E2"/>
<path opacity="0.21" d="M244.324 134.516H209.554V135.208H244.324V134.516Z" fill="#4079E2"/>
<path opacity="0.21" d="M244.324 127.607H209.554V128.3H244.324V127.607Z" fill="#4079E2"/>
<path opacity="0.21" d="M244.324 120.703H209.554V121.396H244.324V120.703Z" fill="#4079E2"/>
</g>
<g opacity="0.21">
<path opacity="0.21" d="M278.854 48.1845H244.083V48.8775H278.854V48.1845Z" fill="#4079E2"/>
<path opacity="0.21" d="M278.854 41.2755H244.083V41.9685H278.854V41.2755Z" fill="#4079E2"/>
<path opacity="0.21" d="M278.854 34.3717H244.083V35.0648H278.854V34.3717Z" fill="#4079E2"/>
<path opacity="0.21" d="M278.854 27.4628H244.083V28.1558H278.854V27.4628Z" fill="#4079E2"/>
<path opacity="0.21" d="M278.854 20.559H244.083V21.252H278.854V20.559Z" fill="#4079E2"/>
<path opacity="0.21" d="M278.854 44.73H244.083V45.423H278.854V44.73Z" fill="#4079E2"/>
<path opacity="0.21" d="M278.854 37.821H244.083V38.514H278.854V37.821Z" fill="#4079E2"/>
<path opacity="0.21" d="M278.854 30.9173H244.083V31.6103H278.854V30.9173Z" fill="#4079E2"/>
<path opacity="0.21" d="M278.854 24.0082H244.083V24.7012H278.854V24.0082Z" fill="#4079E2"/>
<path opacity="0.21" d="M278.854 17.1045H244.083V17.7975H278.854V17.1045Z" fill="#4079E2"/>
<path opacity="0.21" d="M244.324 48.1845H209.554V48.8775H244.324V48.1845Z" fill="#4079E2"/>
<path opacity="0.21" d="M244.324 41.2755H209.554V41.9685H244.324V41.2755Z" fill="#4079E2"/>
<path opacity="0.21" d="M244.324 34.3717H209.554V35.0648H244.324V34.3717Z" fill="#4079E2"/>
<path opacity="0.21" d="M244.324 27.4628H209.554V28.1558H244.324V27.4628Z" fill="#4079E2"/>
<path opacity="0.21" d="M244.324 20.559H209.554V21.252H244.324V20.559Z" fill="#4079E2"/>
<path opacity="0.21" d="M244.324 44.73H209.554V45.423H244.324V44.73Z" fill="#4079E2"/>
<path opacity="0.21" d="M244.324 37.821H209.554V38.514H244.324V37.821Z" fill="#4079E2"/>
<path opacity="0.21" d="M244.324 30.9173H209.554V31.6103H244.324V30.9173Z" fill="#4079E2"/>
<path opacity="0.21" d="M244.324 24.0082H209.554V24.7012H244.324V24.0082Z" fill="#4079E2"/>
<path opacity="0.21" d="M244.324 17.1045H209.554V17.7975H244.324V17.1045Z" fill="#4079E2"/>
<path opacity="0.21" d="M209.79 48.1845H175.019V48.8775H209.79V48.1845Z" fill="#4079E2"/>
<path opacity="0.21" d="M209.79 41.2755H175.019V41.9685H209.79V41.2755Z" fill="#4079E2"/>
<path opacity="0.21" d="M209.79 34.3717H175.019V35.0648H209.79V34.3717Z" fill="#4079E2"/>
<path opacity="0.21" d="M209.79 27.4628H175.019V28.1558H209.79V27.4628Z" fill="#4079E2"/>
<path opacity="0.21" d="M209.79 20.559H175.019V21.252H209.79V20.559Z" fill="#4079E2"/>
<path opacity="0.21" d="M209.79 44.73H175.019V45.423H209.79V44.73Z" fill="#4079E2"/>
<path opacity="0.21" d="M209.79 37.821H175.019V38.514H209.79V37.821Z" fill="#4079E2"/>
<path opacity="0.21" d="M209.79 30.9173H175.019V31.6103H209.79V30.9173Z" fill="#4079E2"/>
<path opacity="0.21" d="M209.79 24.0082H175.019V24.7012H209.79V24.0082Z" fill="#4079E2"/>
<path opacity="0.21" d="M209.79 17.1045H175.019V17.7975H209.79V17.1045Z" fill="#4079E2"/>
</g>
<g opacity="0.21">
<path opacity="0.21" d="M278.854 82.7138H244.083V83.4068H278.854V82.7138Z" fill="#4079E2"/>
<path opacity="0.21" d="M278.854 75.81H244.083V76.503H278.854V75.81Z" fill="#4079E2"/>
<path opacity="0.21" d="M278.854 68.901H244.083V69.594H278.854V68.901Z" fill="#4079E2"/>
<path opacity="0.21" d="M278.854 61.9972H244.083V62.6903H278.854V61.9972Z" fill="#4079E2"/>
<path opacity="0.21" d="M278.854 55.0883H244.083V55.7813H278.854V55.0883Z" fill="#4079E2"/>
<path opacity="0.21" d="M278.854 79.2645H244.083V79.9575H278.854V79.2645Z" fill="#4079E2"/>
<path opacity="0.21" d="M278.854 72.3555H244.083V73.0485H278.854V72.3555Z" fill="#4079E2"/>
<path opacity="0.21" d="M278.854 65.4518H244.083V66.1447H278.854V65.4518Z" fill="#4079E2"/>
<path opacity="0.21" d="M278.854 58.5428H244.083V59.2358H278.854V58.5428Z" fill="#4079E2"/>
<path opacity="0.21" d="M278.854 51.639H244.083V52.332H278.854V51.639Z" fill="#4079E2"/>
<path opacity="0.21" d="M244.324 82.7138H209.554V83.4068H244.324V82.7138Z" fill="#4079E2"/>
<path opacity="0.21" d="M244.324 75.81H209.554V76.503H244.324V75.81Z" fill="#4079E2"/>
<path opacity="0.21" d="M244.324 68.901H209.554V69.594H244.324V68.901Z" fill="#4079E2"/>
<path opacity="0.21" d="M244.324 61.9972H209.554V62.6903H244.324V61.9972Z" fill="#4079E2"/>
<path opacity="0.21" d="M244.324 55.0883H209.554V55.7813H244.324V55.0883Z" fill="#4079E2"/>
<path opacity="0.21" d="M244.324 79.2645H209.554V79.9575H244.324V79.2645Z" fill="#4079E2"/>
<path opacity="0.21" d="M244.324 72.3555H209.554V73.0485H244.324V72.3555Z" fill="#4079E2"/>
<path opacity="0.21" d="M244.324 65.4518H209.554V66.1447H244.324V65.4518Z" fill="#4079E2"/>
<path opacity="0.21" d="M244.324 58.5428H209.554V59.2358H244.324V58.5428Z" fill="#4079E2"/>
<path opacity="0.21" d="M244.324 51.639H209.554V52.332H244.324V51.639Z" fill="#4079E2"/>
<path opacity="0.21" d="M209.79 82.7138H175.019V83.4068H209.79V82.7138Z" fill="#4079E2"/>
<path opacity="0.21" d="M209.79 75.81H175.019V76.503H209.79V75.81Z" fill="#4079E2"/>
<path opacity="0.21" d="M209.79 68.901H175.019V69.594H209.79V68.901Z" fill="#4079E2"/>
<path opacity="0.21" d="M209.79 61.9972H175.019V62.6903H209.79V61.9972Z" fill="#4079E2"/>
<path opacity="0.21" d="M209.79 55.0883H175.019V55.7813H209.79V55.0883Z" fill="#4079E2"/>
<path opacity="0.21" d="M209.79 79.2645H175.019V79.9575H209.79V79.2645Z" fill="#4079E2"/>
<path opacity="0.21" d="M209.79 72.3555H175.019V73.0485H209.79V72.3555Z" fill="#4079E2"/>
<path opacity="0.21" d="M209.79 65.4518H175.019V66.1447H209.79V65.4518Z" fill="#4079E2"/>
<path opacity="0.21" d="M209.79 58.5428H175.019V59.2358H209.79V58.5428Z" fill="#4079E2"/>
<path opacity="0.21" d="M209.79 51.639H175.019V52.332H209.79V51.639Z" fill="#4079E2"/>
</g>
<g opacity="0.21">
<path opacity="0.21" d="M278.854 117.248H244.083V117.941H278.854V117.248Z" fill="#4079E2"/>
<path opacity="0.21" d="M278.854 110.339H244.083V111.032H278.854V110.339Z" fill="#4079E2"/>
<path opacity="0.21" d="M278.854 103.435H244.083V104.128H278.854V103.435Z" fill="#4079E2"/>
<path opacity="0.21" d="M278.854 96.5265H244.083V97.2195H278.854V96.5265Z" fill="#4079E2"/>
<path opacity="0.21" d="M278.854 89.6227H244.083V90.3158H278.854V89.6227Z" fill="#4079E2"/>
<path opacity="0.21" d="M278.854 113.794H244.083V114.487H278.854V113.794Z" fill="#4079E2"/>
<path opacity="0.21" d="M278.854 106.89H244.083V107.583H278.854V106.89Z" fill="#4079E2"/>
<path opacity="0.21" d="M278.854 99.981H244.083V100.674H278.854V99.981Z" fill="#4079E2"/>
<path opacity="0.21" d="M278.854 93.0772H244.083V93.7702H278.854V93.0772Z" fill="#4079E2"/>
<path opacity="0.21" d="M278.854 86.1682H244.083V86.8613H278.854V86.1682Z" fill="#4079E2"/>
<path opacity="0.21" d="M244.324 117.248H209.554V117.941H244.324V117.248Z" fill="#4079E2"/>
<path opacity="0.21" d="M244.324 110.339H209.554V111.032H244.324V110.339Z" fill="#4079E2"/>
<path opacity="0.21" d="M244.324 103.435H209.554V104.128H244.324V103.435Z" fill="#4079E2"/>
<path opacity="0.21" d="M244.324 96.5265H209.554V97.2195H244.324V96.5265Z" fill="#4079E2"/>
<path opacity="0.21" d="M244.324 89.6227H209.554V90.3158H244.324V89.6227Z" fill="#4079E2"/>
<path opacity="0.21" d="M244.324 113.794H209.554V114.487H244.324V113.794Z" fill="#4079E2"/>
<path opacity="0.21" d="M244.324 106.89H209.554V107.583H244.324V106.89Z" fill="#4079E2"/>
<path opacity="0.21" d="M244.324 99.981H209.554V100.674H244.324V99.981Z" fill="#4079E2"/>
<path opacity="0.21" d="M244.324 93.0772H209.554V93.7702H244.324V93.0772Z" fill="#4079E2"/>
<path opacity="0.21" d="M244.324 86.1682H209.554V86.8613H244.324V86.1682Z" fill="#4079E2"/>
<path opacity="0.21" d="M209.79 117.248H175.019V117.941H209.79V117.248Z" fill="#4079E2"/>
<path opacity="0.21" d="M209.79 110.339H175.019V111.032H209.79V110.339Z" fill="#4079E2"/>
<path opacity="0.21" d="M209.79 103.435H175.019V104.128H209.79V103.435Z" fill="#4079E2"/>
<path opacity="0.21" d="M209.79 96.5265H175.019V97.2195H209.79V96.5265Z" fill="#4079E2"/>
<path opacity="0.21" d="M209.79 89.6227H175.019V90.3158H209.79V89.6227Z" fill="#4079E2"/>
<path opacity="0.21" d="M209.79 113.794H175.019V114.487H209.79V113.794Z" fill="#4079E2"/>
<path opacity="0.21" d="M209.79 106.89H175.019V107.583H209.79V106.89Z" fill="#4079E2"/>
<path opacity="0.21" d="M209.79 99.981H175.019V100.674H209.79V99.981Z" fill="#4079E2"/>
<path opacity="0.21" d="M209.79 93.0772H175.019V93.7702H209.79V93.0772Z" fill="#4079E2"/>
<path opacity="0.21" d="M209.79 86.1682H175.019V86.8613H209.79V86.1682Z" fill="#4079E2"/>
</g>
<g opacity="0.21">
<path opacity="0.21" d="M278.854 151.778H244.083V152.471H278.854V151.778Z" fill="#4079E2"/>
<path opacity="0.21" d="M278.854 144.874H244.083V145.567H278.854V144.874Z" fill="#4079E2"/>
<path opacity="0.21" d="M278.854 137.965H244.083V138.658H278.854V137.965Z" fill="#4079E2"/>
<path opacity="0.21" d="M278.854 131.061H244.083V131.754H278.854V131.061Z" fill="#4079E2"/>
<path opacity="0.21" d="M278.854 124.152H244.083V124.845H278.854V124.152Z" fill="#4079E2"/>
<path opacity="0.21" d="M278.854 148.328H244.083V149.021H278.854V148.328Z" fill="#4079E2"/>
<path opacity="0.21" d="M278.854 141.419H244.083V142.112H278.854V141.419Z" fill="#4079E2"/>
<path opacity="0.21" d="M278.854 134.516H244.083V135.208H278.854V134.516Z" fill="#4079E2"/>
<path opacity="0.21" d="M278.854 127.607H244.083V128.3H278.854V127.607Z" fill="#4079E2"/>
<path opacity="0.21" d="M278.854 120.703H244.083V121.396H278.854V120.703Z" fill="#4079E2"/>
<path opacity="0.21" d="M244.324 151.778H209.554V152.471H244.324V151.778Z" fill="#4079E2"/>
<path opacity="0.21" d="M244.324 144.874H209.554V145.567H244.324V144.874Z" fill="#4079E2"/>
<path opacity="0.21" d="M244.324 137.965H209.554V138.658H244.324V137.965Z" fill="#4079E2"/>
<path opacity="0.21" d="M244.324 131.061H209.554V131.754H244.324V131.061Z" fill="#4079E2"/>
<path opacity="0.21" d="M244.324 124.152H209.554V124.845H244.324V124.152Z" fill="#4079E2"/>
<path opacity="0.21" d="M244.324 148.328H209.554V149.021H244.324V148.328Z" fill="#4079E2"/>
<path opacity="0.21" d="M244.324 141.419H209.554V142.112H244.324V141.419Z" fill="#4079E2"/>
<path opacity="0.21" d="M244.324 134.516H209.554V135.208H244.324V134.516Z" fill="#4079E2"/>
<path opacity="0.21" d="M244.324 127.607H209.554V128.3H244.324V127.607Z" fill="#4079E2"/>
<path opacity="0.21" d="M244.324 120.703H209.554V121.396H244.324V120.703Z" fill="#4079E2"/>
<path opacity="0.21" d="M209.79 151.778H175.019V152.471H209.79V151.778Z" fill="#4079E2"/>
<path opacity="0.21" d="M209.79 144.874H175.019V145.567H209.79V144.874Z" fill="#4079E2"/>
<path opacity="0.21" d="M209.79 137.965H175.019V138.658H209.79V137.965Z" fill="#4079E2"/>
<path opacity="0.21" d="M209.79 131.061H175.019V131.754H209.79V131.061Z" fill="#4079E2"/>
<path opacity="0.21" d="M209.79 124.152H175.019V124.845H209.79V124.152Z" fill="#4079E2"/>
<path opacity="0.21" d="M209.79 148.328H175.019V149.021H209.79V148.328Z" fill="#4079E2"/>
<path opacity="0.21" d="M209.79 141.419H175.019V142.112H209.79V141.419Z" fill="#4079E2"/>
<path opacity="0.21" d="M209.79 134.516H175.019V135.208H209.79V134.516Z" fill="#4079E2"/>
<path opacity="0.21" d="M209.79 127.607H175.019V128.3H209.79V127.607Z" fill="#4079E2"/>
<path opacity="0.21" d="M209.79 120.703H175.019V121.396H209.79V120.703Z" fill="#4079E2"/>
</g>
<g opacity="0.21">
<path opacity="0.21" d="M244.324 48.1845H209.554V48.8775H244.324V48.1845Z" fill="#4079E2"/>
<path opacity="0.21" d="M244.324 41.2755H209.554V41.9685H244.324V41.2755Z" fill="#4079E2"/>
<path opacity="0.21" d="M244.324 34.3717H209.554V35.0648H244.324V34.3717Z" fill="#4079E2"/>
<path opacity="0.21" d="M244.324 27.4628H209.554V28.1558H244.324V27.4628Z" fill="#4079E2"/>
<path opacity="0.21" d="M244.324 20.559H209.554V21.252H244.324V20.559Z" fill="#4079E2"/>
<path opacity="0.21" d="M244.324 44.73H209.554V45.423H244.324V44.73Z" fill="#4079E2"/>
<path opacity="0.21" d="M244.324 37.821H209.554V38.514H244.324V37.821Z" fill="#4079E2"/>
<path opacity="0.21" d="M244.324 30.9173H209.554V31.6103H244.324V30.9173Z" fill="#4079E2"/>
<path opacity="0.21" d="M244.324 24.0082H209.554V24.7012H244.324V24.0082Z" fill="#4079E2"/>
<path opacity="0.21" d="M244.324 17.1045H209.554V17.7975H244.324V17.1045Z" fill="#4079E2"/>
<path opacity="0.21" d="M209.79 48.1845H175.019V48.8775H209.79V48.1845Z" fill="#4079E2"/>
<path opacity="0.21" d="M209.79 41.2755H175.019V41.9685H209.79V41.2755Z" fill="#4079E2"/>
<path opacity="0.21" d="M209.79 34.3717H175.019V35.0648H209.79V34.3717Z" fill="#4079E2"/>
<path opacity="0.21" d="M209.79 27.4628H175.019V28.1558H209.79V27.4628Z" fill="#4079E2"/>
<path opacity="0.21" d="M209.79 20.559H175.019V21.252H209.79V20.559Z" fill="#4079E2"/>
<path opacity="0.21" d="M209.79 44.73H175.019V45.423H209.79V44.73Z" fill="#4079E2"/>
<path opacity="0.21" d="M209.79 37.821H175.019V38.514H209.79V37.821Z" fill="#4079E2"/>
<path opacity="0.21" d="M209.79 30.9173H175.019V31.6103H209.79V30.9173Z" fill="#4079E2"/>
<path opacity="0.21" d="M209.79 24.0082H175.019V24.7012H209.79V24.0082Z" fill="#4079E2"/>
<path opacity="0.21" d="M209.79 17.1045H175.019V17.7975H209.79V17.1045Z" fill="#4079E2"/>
<path opacity="0.21" d="M175.261 48.1845H140.49V48.8775H175.261V48.1845Z" fill="#4079E2"/>
<path opacity="0.21" d="M175.261 41.2755H140.49V41.9685H175.261V41.2755Z" fill="#4079E2"/>
<path opacity="0.21" d="M175.261 34.3717H140.49V35.0648H175.261V34.3717Z" fill="#4079E2"/>
<path opacity="0.21" d="M175.261 27.4628H140.49V28.1558H175.261V27.4628Z" fill="#4079E2"/>
<path opacity="0.21" d="M175.261 20.559H140.49V21.252H175.261V20.559Z" fill="#4079E2"/>
<path opacity="0.21" d="M175.261 44.73H140.49V45.423H175.261V44.73Z" fill="#4079E2"/>
<path opacity="0.21" d="M175.261 37.821H140.49V38.514H175.261V37.821Z" fill="#4079E2"/>
<path opacity="0.21" d="M175.261 30.9173H140.49V31.6103H175.261V30.9173Z" fill="#4079E2"/>
<path opacity="0.21" d="M175.261 24.0082H140.49V24.7012H175.261V24.0082Z" fill="#4079E2"/>
<path opacity="0.21" d="M175.261 17.1045H140.49V17.7975H175.261V17.1045Z" fill="#4079E2"/>
</g>
<g opacity="0.21">
<path opacity="0.21" d="M244.324 82.7138H209.554V83.4068H244.324V82.7138Z" fill="#4079E2"/>
<path opacity="0.21" d="M244.324 75.81H209.554V76.503H244.324V75.81Z" fill="#4079E2"/>
<path opacity="0.21" d="M244.324 68.901H209.554V69.594H244.324V68.901Z" fill="#4079E2"/>
<path opacity="0.21" d="M244.324 61.9972H209.554V62.6903H244.324V61.9972Z" fill="#4079E2"/>
<path opacity="0.21" d="M244.324 55.0883H209.554V55.7813H244.324V55.0883Z" fill="#4079E2"/>
<path opacity="0.21" d="M244.324 79.2645H209.554V79.9575H244.324V79.2645Z" fill="#4079E2"/>
<path opacity="0.21" d="M244.324 72.3555H209.554V73.0485H244.324V72.3555Z" fill="#4079E2"/>
<path opacity="0.21" d="M244.324 65.4518H209.554V66.1447H244.324V65.4518Z" fill="#4079E2"/>
<path opacity="0.21" d="M244.324 58.5428H209.554V59.2358H244.324V58.5428Z" fill="#4079E2"/>
<path opacity="0.21" d="M244.324 51.639H209.554V52.332H244.324V51.639Z" fill="#4079E2"/>
<path opacity="0.21" d="M209.79 82.7138H175.019V83.4068H209.79V82.7138Z" fill="#4079E2"/>
<path opacity="0.21" d="M209.79 75.81H175.019V76.503H209.79V75.81Z" fill="#4079E2"/>
<path opacity="0.21" d="M209.79 68.901H175.019V69.594H209.79V68.901Z" fill="#4079E2"/>
<path opacity="0.21" d="M209.79 61.9972H175.019V62.6903H209.79V61.9972Z" fill="#4079E2"/>
<path opacity="0.21" d="M209.79 55.0883H175.019V55.7813H209.79V55.0883Z" fill="#4079E2"/>
<path opacity="0.21" d="M209.79 79.2645H175.019V79.9575H209.79V79.2645Z" fill="#4079E2"/>
<path opacity="0.21" d="M209.79 72.3555H175.019V73.0485H209.79V72.3555Z" fill="#4079E2"/>
<path opacity="0.21" d="M209.79 65.4518H175.019V66.1447H209.79V65.4518Z" fill="#4079E2"/>
<path opacity="0.21" d="M209.79 58.5428H175.019V59.2358H209.79V58.5428Z" fill="#4079E2"/>
<path opacity="0.21" d="M209.79 51.639H175.019V52.332H209.79V51.639Z" fill="#4079E2"/>
<path opacity="0.21" d="M175.261 82.7138H140.49V83.4068H175.261V82.7138Z" fill="#4079E2"/>
<path opacity="0.21" d="M175.261 75.81H140.49V76.503H175.261V75.81Z" fill="#4079E2"/>
<path opacity="0.21" d="M175.261 68.901H140.49V69.594H175.261V68.901Z" fill="#4079E2"/>
<path opacity="0.21" d="M175.261 61.9972H140.49V62.6903H175.261V61.9972Z" fill="#4079E2"/>
<path opacity="0.21" d="M175.261 55.0883H140.49V55.7813H175.261V55.0883Z" fill="#4079E2"/>
<path opacity="0.21" d="M175.261 79.2645H140.49V79.9575H175.261V79.2645Z" fill="#4079E2"/>
<path opacity="0.21" d="M175.261 72.3555H140.49V73.0485H175.261V72.3555Z" fill="#4079E2"/>
<path opacity="0.21" d="M175.261 65.4518H140.49V66.1447H175.261V65.4518Z" fill="#4079E2"/>
<path opacity="0.21" d="M175.261 58.5428H140.49V59.2358H175.261V58.5428Z" fill="#4079E2"/>
<path opacity="0.21" d="M175.261 51.639H140.49V52.332H175.261V51.639Z" fill="#4079E2"/>
</g>
<g opacity="0.21">
<path opacity="0.21" d="M244.324 117.248H209.554V117.941H244.324V117.248Z" fill="#4079E2"/>
<path opacity="0.21" d="M244.324 110.339H209.554V111.032H244.324V110.339Z" fill="#4079E2"/>
<path opacity="0.21" d="M244.324 103.435H209.554V104.128H244.324V103.435Z" fill="#4079E2"/>
<path opacity="0.21" d="M244.324 96.5265H209.554V97.2195H244.324V96.5265Z" fill="#4079E2"/>
<path opacity="0.21" d="M244.324 89.6227H209.554V90.3158H244.324V89.6227Z" fill="#4079E2"/>
<path opacity="0.21" d="M244.324 113.794H209.554V114.487H244.324V113.794Z" fill="#4079E2"/>
<path opacity="0.21" d="M244.324 106.89H209.554V107.583H244.324V106.89Z" fill="#4079E2"/>
<path opacity="0.21" d="M244.324 99.981H209.554V100.674H244.324V99.981Z" fill="#4079E2"/>
<path opacity="0.21" d="M244.324 93.0772H209.554V93.7702H244.324V93.0772Z" fill="#4079E2"/>
<path opacity="0.21" d="M244.324 86.1682H209.554V86.8613H244.324V86.1682Z" fill="#4079E2"/>
<path opacity="0.21" d="M209.79 117.248H175.019V117.941H209.79V117.248Z" fill="#4079E2"/>
<path opacity="0.21" d="M209.79 110.339H175.019V111.032H209.79V110.339Z" fill="#4079E2"/>
<path opacity="0.21" d="M209.79 103.435H175.019V104.128H209.79V103.435Z" fill="#4079E2"/>
<path opacity="0.21" d="M209.79 96.5265H175.019V97.2195H209.79V96.5265Z" fill="#4079E2"/>
<path opacity="0.21" d="M209.79 89.6227H175.019V90.3158H209.79V89.6227Z" fill="#4079E2"/>
<path opacity="0.21" d="M209.79 113.794H175.019V114.487H209.79V113.794Z" fill="#4079E2"/>
<path opacity="0.21" d="M209.79 106.89H175.019V107.583H209.79V106.89Z" fill="#4079E2"/>
<path opacity="0.21" d="M209.79 99.981H175.019V100.674H209.79V99.981Z" fill="#4079E2"/>
<path opacity="0.21" d="M209.79 93.0772H175.019V93.7702H209.79V93.0772Z" fill="#4079E2"/>
<path opacity="0.21" d="M209.79 86.1682H175.019V86.8613H209.79V86.1682Z" fill="#4079E2"/>
<path opacity="0.21" d="M175.261 117.248H140.49V117.941H175.261V117.248Z" fill="#4079E2"/>
<path opacity="0.21" d="M175.261 110.339H140.49V111.032H175.261V110.339Z" fill="#4079E2"/>
<path opacity="0.21" d="M175.261 103.435H140.49V104.128H175.261V103.435Z" fill="#4079E2"/>
<path opacity="0.21" d="M175.261 96.5265H140.49V97.2195H175.261V96.5265Z" fill="#4079E2"/>
<path opacity="0.21" d="M175.261 89.6227H140.49V90.3158H175.261V89.6227Z" fill="#4079E2"/>
<path opacity="0.21" d="M175.261 113.794H140.49V114.487H175.261V113.794Z" fill="#4079E2"/>
<path opacity="0.21" d="M175.261 106.89H140.49V107.583H175.261V106.89Z" fill="#4079E2"/>
<path opacity="0.21" d="M175.261 99.981H140.49V100.674H175.261V99.981Z" fill="#4079E2"/>
<path opacity="0.21" d="M175.261 93.0772H140.49V93.7702H175.261V93.0772Z" fill="#4079E2"/>
<path opacity="0.21" d="M175.261 86.1682H140.49V86.8613H175.261V86.1682Z" fill="#4079E2"/>
</g>
<g opacity="0.21">
<path opacity="0.21" d="M244.324 151.778H209.554V152.471H244.324V151.778Z" fill="#4079E2"/>
<path opacity="0.21" d="M244.324 144.874H209.554V145.567H244.324V144.874Z" fill="#4079E2"/>
<path opacity="0.21" d="M244.324 137.965H209.554V138.658H244.324V137.965Z" fill="#4079E2"/>
<path opacity="0.21" d="M244.324 131.061H209.554V131.754H244.324V131.061Z" fill="#4079E2"/>
<path opacity="0.21" d="M244.324 124.152H209.554V124.845H244.324V124.152Z" fill="#4079E2"/>
<path opacity="0.21" d="M244.324 148.328H209.554V149.021H244.324V148.328Z" fill="#4079E2"/>
<path opacity="0.21" d="M244.324 141.419H209.554V142.112H244.324V141.419Z" fill="#4079E2"/>
<path opacity="0.21" d="M244.324 134.516H209.554V135.208H244.324V134.516Z" fill="#4079E2"/>
<path opacity="0.21" d="M244.324 127.607H209.554V128.3H244.324V127.607Z" fill="#4079E2"/>
<path opacity="0.21" d="M244.324 120.703H209.554V121.396H244.324V120.703Z" fill="#4079E2"/>
<path opacity="0.21" d="M209.79 151.778H175.019V152.471H209.79V151.778Z" fill="#4079E2"/>
<path opacity="0.21" d="M209.79 144.874H175.019V145.567H209.79V144.874Z" fill="#4079E2"/>
<path opacity="0.21" d="M209.79 137.965H175.019V138.658H209.79V137.965Z" fill="#4079E2"/>
<path opacity="0.21" d="M209.79 131.061H175.019V131.754H209.79V131.061Z" fill="#4079E2"/>
<path opacity="0.21" d="M209.79 124.152H175.019V124.845H209.79V124.152Z" fill="#4079E2"/>
<path opacity="0.21" d="M209.79 148.328H175.019V149.021H209.79V148.328Z" fill="#4079E2"/>
<path opacity="0.21" d="M209.79 141.419H175.019V142.112H209.79V141.419Z" fill="#4079E2"/>
<path opacity="0.21" d="M209.79 134.516H175.019V135.208H209.79V134.516Z" fill="#4079E2"/>
<path opacity="0.21" d="M209.79 127.607H175.019V128.3H209.79V127.607Z" fill="#4079E2"/>
<path opacity="0.21" d="M209.79 120.703H175.019V121.396H209.79V120.703Z" fill="#4079E2"/>
<path opacity="0.21" d="M175.261 151.778H140.49V152.471H175.261V151.778Z" fill="#4079E2"/>
<path opacity="0.21" d="M175.261 144.874H140.49V145.567H175.261V144.874Z" fill="#4079E2"/>
<path opacity="0.21" d="M175.261 137.965H140.49V138.658H175.261V137.965Z" fill="#4079E2"/>
<path opacity="0.21" d="M175.261 131.061H140.49V131.754H175.261V131.061Z" fill="#4079E2"/>
<path opacity="0.21" d="M175.261 124.152H140.49V124.845H175.261V124.152Z" fill="#4079E2"/>
<path opacity="0.21" d="M175.261 148.328H140.49V149.021H175.261V148.328Z" fill="#4079E2"/>
<path opacity="0.21" d="M175.261 141.419H140.49V142.112H175.261V141.419Z" fill="#4079E2"/>
<path opacity="0.21" d="M175.261 134.516H140.49V135.208H175.261V134.516Z" fill="#4079E2"/>
<path opacity="0.21" d="M175.261 127.607H140.49V128.3H175.261V127.607Z" fill="#4079E2"/>
<path opacity="0.21" d="M175.261 120.703H140.49V121.396H175.261V120.703Z" fill="#4079E2"/>
</g>
<g opacity="0.21">
<path opacity="0.21" d="M209.79 48.1845H175.019V48.8775H209.79V48.1845Z" fill="#4079E2"/>
<path opacity="0.21" d="M209.79 41.2755H175.019V41.9685H209.79V41.2755Z" fill="#4079E2"/>
<path opacity="0.21" d="M209.79 34.3717H175.019V35.0648H209.79V34.3717Z" fill="#4079E2"/>
<path opacity="0.21" d="M209.79 27.4628H175.019V28.1558H209.79V27.4628Z" fill="#4079E2"/>
<path opacity="0.21" d="M209.79 20.559H175.019V21.252H209.79V20.559Z" fill="#4079E2"/>
<path opacity="0.21" d="M209.79 44.73H175.019V45.423H209.79V44.73Z" fill="#4079E2"/>
<path opacity="0.21" d="M209.79 37.821H175.019V38.514H209.79V37.821Z" fill="#4079E2"/>
<path opacity="0.21" d="M209.79 30.9173H175.019V31.6103H209.79V30.9173Z" fill="#4079E2"/>
<path opacity="0.21" d="M209.79 24.0082H175.019V24.7012H209.79V24.0082Z" fill="#4079E2"/>
<path opacity="0.21" d="M209.79 17.1045H175.019V17.7975H209.79V17.1045Z" fill="#4079E2"/>
<path opacity="0.21" d="M175.261 48.1845H140.49V48.8775H175.261V48.1845Z" fill="#4079E2"/>
<path opacity="0.21" d="M175.261 41.2755H140.49V41.9685H175.261V41.2755Z" fill="#4079E2"/>
<path opacity="0.21" d="M175.261 34.3717H140.49V35.0648H175.261V34.3717Z" fill="#4079E2"/>
<path opacity="0.21" d="M175.261 27.4628H140.49V28.1558H175.261V27.4628Z" fill="#4079E2"/>
<path opacity="0.21" d="M175.261 20.559H140.49V21.252H175.261V20.559Z" fill="#4079E2"/>
<path opacity="0.21" d="M175.261 44.73H140.49V45.423H175.261V44.73Z" fill="#4079E2"/>
<path opacity="0.21" d="M175.261 37.821H140.49V38.514H175.261V37.821Z" fill="#4079E2"/>
<path opacity="0.21" d="M175.261 30.9173H140.49V31.6103H175.261V30.9173Z" fill="#4079E2"/>
<path opacity="0.21" d="M175.261 24.0082H140.49V24.7012H175.261V24.0082Z" fill="#4079E2"/>
<path opacity="0.21" d="M175.261 17.1045H140.49V17.7975H175.261V17.1045Z" fill="#4079E2"/>
<path opacity="0.21" d="M140.726 48.1845H105.955V48.8775H140.726V48.1845Z" fill="#4079E2"/>
<path opacity="0.21" d="M140.726 41.2755H105.955V41.9685H140.726V41.2755Z" fill="#4079E2"/>
<path opacity="0.21" d="M140.726 34.3717H105.955V35.0648H140.726V34.3717Z" fill="#4079E2"/>
<path opacity="0.21" d="M140.726 27.4628H105.955V28.1558H140.726V27.4628Z" fill="#4079E2"/>
<path opacity="0.21" d="M140.726 20.559H105.955V21.252H140.726V20.559Z" fill="#4079E2"/>
<path opacity="0.21" d="M140.726 44.73H105.955V45.423H140.726V44.73Z" fill="#4079E2"/>
<path opacity="0.21" d="M140.726 37.821H105.955V38.514H140.726V37.821Z" fill="#4079E2"/>
<path opacity="0.21" d="M140.726 30.9173H105.955V31.6103H140.726V30.9173Z" fill="#4079E2"/>
<path opacity="0.21" d="M140.726 24.0082H105.955V24.7012H140.726V24.0082Z" fill="#4079E2"/>
<path opacity="0.21" d="M140.726 17.1045H105.955V17.7975H140.726V17.1045Z" fill="#4079E2"/>
</g>
<g opacity="0.21">
<path opacity="0.21" d="M209.79 82.7138H175.019V83.4068H209.79V82.7138Z" fill="#4079E2"/>
<path opacity="0.21" d="M209.79 75.81H175.019V76.503H209.79V75.81Z" fill="#4079E2"/>
<path opacity="0.21" d="M209.79 68.901H175.019V69.594H209.79V68.901Z" fill="#4079E2"/>
<path opacity="0.21" d="M209.79 61.9972H175.019V62.6903H209.79V61.9972Z" fill="#4079E2"/>
<path opacity="0.21" d="M209.79 55.0883H175.019V55.7813H209.79V55.0883Z" fill="#4079E2"/>
<path opacity="0.21" d="M209.79 79.2645H175.019V79.9575H209.79V79.2645Z" fill="#4079E2"/>
<path opacity="0.21" d="M209.79 72.3555H175.019V73.0485H209.79V72.3555Z" fill="#4079E2"/>
<path opacity="0.21" d="M209.79 65.4518H175.019V66.1447H209.79V65.4518Z" fill="#4079E2"/>
<path opacity="0.21" d="M209.79 58.5428H175.019V59.2358H209.79V58.5428Z" fill="#4079E2"/>
<path opacity="0.21" d="M209.79 51.639H175.019V52.332H209.79V51.639Z" fill="#4079E2"/>
<path opacity="0.21" d="M175.261 82.7138H140.49V83.4068H175.261V82.7138Z" fill="#4079E2"/>
<path opacity="0.21" d="M175.261 75.81H140.49V76.503H175.261V75.81Z" fill="#4079E2"/>
<path opacity="0.21" d="M175.261 68.901H140.49V69.594H175.261V68.901Z" fill="#4079E2"/>
<path opacity="0.21" d="M175.261 61.9972H140.49V62.6903H175.261V61.9972Z" fill="#4079E2"/>
<path opacity="0.21" d="M175.261 55.0883H140.49V55.7813H175.261V55.0883Z" fill="#4079E2"/>
<path opacity="0.21" d="M175.261 79.2645H140.49V79.9575H175.261V79.2645Z" fill="#4079E2"/>
<path opacity="0.21" d="M175.261 72.3555H140.49V73.0485H175.261V72.3555Z" fill="#4079E2"/>
<path opacity="0.21" d="M175.261 65.4518H140.49V66.1447H175.261V65.4518Z" fill="#4079E2"/>
<path opacity="0.21" d="M175.261 58.5428H140.49V59.2358H175.261V58.5428Z" fill="#4079E2"/>
<path opacity="0.21" d="M175.261 51.639H140.49V52.332H175.261V51.639Z" fill="#4079E2"/>
<path opacity="0.21" d="M140.726 82.7138H105.955V83.4068H140.726V82.7138Z" fill="#4079E2"/>
<path opacity="0.21" d="M140.726 75.81H105.955V76.503H140.726V75.81Z" fill="#4079E2"/>
<path opacity="0.21" d="M140.726 68.901H105.955V69.594H140.726V68.901Z" fill="#4079E2"/>
<path opacity="0.21" d="M140.726 61.9972H105.955V62.6903H140.726V61.9972Z" fill="#4079E2"/>
<path opacity="0.21" d="M140.726 55.0883H105.955V55.7813H140.726V55.0883Z" fill="#4079E2"/>
<path opacity="0.21" d="M140.726 79.2645H105.955V79.9575H140.726V79.2645Z" fill="#4079E2"/>
<path opacity="0.21" d="M140.726 72.3555H105.955V73.0485H140.726V72.3555Z" fill="#4079E2"/>
<path opacity="0.21" d="M140.726 65.4518H105.955V66.1447H140.726V65.4518Z" fill="#4079E2"/>
<path opacity="0.21" d="M140.726 58.5428H105.955V59.2358H140.726V58.5428Z" fill="#4079E2"/>
<path opacity="0.21" d="M140.726 51.639H105.955V52.332H140.726V51.639Z" fill="#4079E2"/>
</g>
<g opacity="0.21">
<path opacity="0.21" d="M209.79 117.248H175.019V117.941H209.79V117.248Z" fill="#4079E2"/>
<path opacity="0.21" d="M209.79 110.339H175.019V111.032H209.79V110.339Z" fill="#4079E2"/>
<path opacity="0.21" d="M209.79 103.435H175.019V104.128H209.79V103.435Z" fill="#4079E2"/>
<path opacity="0.21" d="M209.79 96.5265H175.019V97.2195H209.79V96.5265Z" fill="#4079E2"/>
<path opacity="0.21" d="M209.79 89.6227H175.019V90.3158H209.79V89.6227Z" fill="#4079E2"/>
<path opacity="0.21" d="M209.79 113.794H175.019V114.487H209.79V113.794Z" fill="#4079E2"/>
<path opacity="0.21" d="M209.79 106.89H175.019V107.583H209.79V106.89Z" fill="#4079E2"/>
<path opacity="0.21" d="M209.79 99.981H175.019V100.674H209.79V99.981Z" fill="#4079E2"/>
<path opacity="0.21" d="M209.79 93.0772H175.019V93.7702H209.79V93.0772Z" fill="#4079E2"/>
<path opacity="0.21" d="M209.79 86.1682H175.019V86.8613H209.79V86.1682Z" fill="#4079E2"/>
<path opacity="0.21" d="M175.261 117.248H140.49V117.941H175.261V117.248Z" fill="#4079E2"/>
<path opacity="0.21" d="M175.261 110.339H140.49V111.032H175.261V110.339Z" fill="#4079E2"/>
<path opacity="0.21" d="M175.261 103.435H140.49V104.128H175.261V103.435Z" fill="#4079E2"/>
<path opacity="0.21" d="M175.261 96.5265H140.49V97.2195H175.261V96.5265Z" fill="#4079E2"/>
<path opacity="0.21" d="M175.261 89.6227H140.49V90.3158H175.261V89.6227Z" fill="#4079E2"/>
<path opacity="0.21" d="M175.261 113.794H140.49V114.487H175.261V113.794Z" fill="#4079E2"/>
<path opacity="0.21" d="M175.261 106.89H140.49V107.583H175.261V106.89Z" fill="#4079E2"/>
<path opacity="0.21" d="M175.261 99.981H140.49V100.674H175.261V99.981Z" fill="#4079E2"/>
<path opacity="0.21" d="M175.261 93.0772H140.49V93.7702H175.261V93.0772Z" fill="#4079E2"/>
<path opacity="0.21" d="M175.261 86.1682H140.49V86.8613H175.261V86.1682Z" fill="#4079E2"/>
<path opacity="0.21" d="M140.726 117.248H105.955V117.941H140.726V117.248Z" fill="#4079E2"/>
<path opacity="0.21" d="M140.726 110.339H105.955V111.032H140.726V110.339Z" fill="#4079E2"/>
<path opacity="0.21" d="M140.726 103.435H105.955V104.128H140.726V103.435Z" fill="#4079E2"/>
<path opacity="0.21" d="M140.726 96.5265H105.955V97.2195H140.726V96.5265Z" fill="#4079E2"/>
<path opacity="0.21" d="M140.726 89.6227H105.955V90.3158H140.726V89.6227Z" fill="#4079E2"/>
<path opacity="0.21" d="M140.726 113.794H105.955V114.487H140.726V113.794Z" fill="#4079E2"/>
<path opacity="0.21" d="M140.726 106.89H105.955V107.583H140.726V106.89Z" fill="#4079E2"/>
<path opacity="0.21" d="M140.726 99.981H105.955V100.674H140.726V99.981Z" fill="#4079E2"/>
<path opacity="0.21" d="M140.726 93.0772H105.955V93.7702H140.726V93.0772Z" fill="#4079E2"/>
<path opacity="0.21" d="M140.726 86.1682H105.955V86.8613H140.726V86.1682Z" fill="#4079E2"/>
</g>
<g opacity="0.21">
<path opacity="0.21" d="M209.79 151.778H175.019V152.471H209.79V151.778Z" fill="#4079E2"/>
<path opacity="0.21" d="M209.79 144.874H175.019V145.567H209.79V144.874Z" fill="#4079E2"/>
<path opacity="0.21" d="M209.79 137.965H175.019V138.658H209.79V137.965Z" fill="#4079E2"/>
<path opacity="0.21" d="M209.79 131.061H175.019V131.754H209.79V131.061Z" fill="#4079E2"/>
<path opacity="0.21" d="M209.79 124.152H175.019V124.845H209.79V124.152Z" fill="#4079E2"/>
<path opacity="0.21" d="M209.79 148.328H175.019V149.021H209.79V148.328Z" fill="#4079E2"/>
<path opacity="0.21" d="M209.79 141.419H175.019V142.112H209.79V141.419Z" fill="#4079E2"/>
<path opacity="0.21" d="M209.79 134.516H175.019V135.208H209.79V134.516Z" fill="#4079E2"/>
<path opacity="0.21" d="M209.79 127.607H175.019V128.3H209.79V127.607Z" fill="#4079E2"/>
<path opacity="0.21" d="M209.79 120.703H175.019V121.396H209.79V120.703Z" fill="#4079E2"/>
<path opacity="0.21" d="M175.261 151.778H140.49V152.471H175.261V151.778Z" fill="#4079E2"/>
<path opacity="0.21" d="M175.261 144.874H140.49V145.567H175.261V144.874Z" fill="#4079E2"/>
<path opacity="0.21" d="M175.261 137.965H140.49V138.658H175.261V137.965Z" fill="#4079E2"/>
<path opacity="0.21" d="M175.261 131.061H140.49V131.754H175.261V131.061Z" fill="#4079E2"/>
<path opacity="0.21" d="M175.261 124.152H140.49V124.845H175.261V124.152Z" fill="#4079E2"/>
<path opacity="0.21" d="M175.261 148.328H140.49V149.021H175.261V148.328Z" fill="#4079E2"/>
<path opacity="0.21" d="M175.261 141.419H140.49V142.112H175.261V141.419Z" fill="#4079E2"/>
<path opacity="0.21" d="M175.261 134.516H140.49V135.208H175.261V134.516Z" fill="#4079E2"/>
<path opacity="0.21" d="M175.261 127.607H140.49V128.3H175.261V127.607Z" fill="#4079E2"/>
<path opacity="0.21" d="M175.261 120.703H140.49V121.396H175.261V120.703Z" fill="#4079E2"/>
<path opacity="0.21" d="M140.726 151.778H105.955V152.471H140.726V151.778Z" fill="#4079E2"/>
<path opacity="0.21" d="M140.726 144.874H105.955V145.567H140.726V144.874Z" fill="#4079E2"/>
<path opacity="0.21" d="M140.726 137.965H105.955V138.658H140.726V137.965Z" fill="#4079E2"/>
<path opacity="0.21" d="M140.726 131.061H105.955V131.754H140.726V131.061Z" fill="#4079E2"/>
<path opacity="0.21" d="M140.726 124.152H105.955V124.845H140.726V124.152Z" fill="#4079E2"/>
<path opacity="0.21" d="M140.726 148.328H105.955V149.021H140.726V148.328Z" fill="#4079E2"/>
<path opacity="0.21" d="M140.726 141.419H105.955V142.112H140.726V141.419Z" fill="#4079E2"/>
<path opacity="0.21" d="M140.726 134.516H105.955V135.208H140.726V134.516Z" fill="#4079E2"/>
<path opacity="0.21" d="M140.726 127.607H105.955V128.3H140.726V127.607Z" fill="#4079E2"/>
<path opacity="0.21" d="M140.726 120.703H105.955V121.396H140.726V120.703Z" fill="#4079E2"/>
</g>
<g opacity="0.21">
<path opacity="0.21" d="M175.261 48.1845H140.49V48.8775H175.261V48.1845Z" fill="#4079E2"/>
<path opacity="0.21" d="M175.261 41.2755H140.49V41.9685H175.261V41.2755Z" fill="#4079E2"/>
<path opacity="0.21" d="M175.261 34.3717H140.49V35.0648H175.261V34.3717Z" fill="#4079E2"/>
<path opacity="0.21" d="M175.261 27.4628H140.49V28.1558H175.261V27.4628Z" fill="#4079E2"/>
<path opacity="0.21" d="M175.261 20.559H140.49V21.252H175.261V20.559Z" fill="#4079E2"/>
<path opacity="0.21" d="M175.261 44.73H140.49V45.423H175.261V44.73Z" fill="#4079E2"/>
<path opacity="0.21" d="M175.261 37.821H140.49V38.514H175.261V37.821Z" fill="#4079E2"/>
<path opacity="0.21" d="M175.261 30.9173H140.49V31.6103H175.261V30.9173Z" fill="#4079E2"/>
<path opacity="0.21" d="M175.261 24.0082H140.49V24.7012H175.261V24.0082Z" fill="#4079E2"/>
<path opacity="0.21" d="M175.261 17.1045H140.49V17.7975H175.261V17.1045Z" fill="#4079E2"/>
<path opacity="0.21" d="M140.726 48.1845H105.955V48.8775H140.726V48.1845Z" fill="#4079E2"/>
<path opacity="0.21" d="M140.726 41.2755H105.955V41.9685H140.726V41.2755Z" fill="#4079E2"/>
<path opacity="0.21" d="M140.726 34.3717H105.955V35.0648H140.726V34.3717Z" fill="#4079E2"/>
<path opacity="0.21" d="M140.726 27.4628H105.955V28.1558H140.726V27.4628Z" fill="#4079E2"/>
<path opacity="0.21" d="M140.726 20.559H105.955V21.252H140.726V20.559Z" fill="#4079E2"/>
<path opacity="0.21" d="M140.726 44.73H105.955V45.423H140.726V44.73Z" fill="#4079E2"/>
<path opacity="0.21" d="M140.726 37.821H105.955V38.514H140.726V37.821Z" fill="#4079E2"/>
<path opacity="0.21" d="M140.726 30.9173H105.955V31.6103H140.726V30.9173Z" fill="#4079E2"/>
<path opacity="0.21" d="M140.726 24.0082H105.955V24.7012H140.726V24.0082Z" fill="#4079E2"/>
<path opacity="0.21" d="M140.726 17.1045H105.955V17.7975H140.726V17.1045Z" fill="#4079E2"/>
<path opacity="0.21" d="M106.197 48.1845H71.4262V48.8775H106.197V48.1845Z" fill="#4079E2"/>
<path opacity="0.21" d="M106.197 41.2755H71.4262V41.9685H106.197V41.2755Z" fill="#4079E2"/>
<path opacity="0.21" d="M106.197 34.3717H71.4262V35.0648H106.197V34.3717Z" fill="#4079E2"/>
<path opacity="0.21" d="M106.197 27.4628H71.4262V28.1558H106.197V27.4628Z" fill="#4079E2"/>
<path opacity="0.21" d="M106.197 20.559H71.4262V21.252H106.197V20.559Z" fill="#4079E2"/>
<path opacity="0.21" d="M106.197 44.73H71.4262V45.423H106.197V44.73Z" fill="#4079E2"/>
<path opacity="0.21" d="M106.197 37.821H71.4262V38.514H106.197V37.821Z" fill="#4079E2"/>
<path opacity="0.21" d="M106.197 30.9173H71.4262V31.6103H106.197V30.9173Z" fill="#4079E2"/>
<path opacity="0.21" d="M106.197 24.0082H71.4262V24.7012H106.197V24.0082Z" fill="#4079E2"/>
<path opacity="0.21" d="M106.197 17.1045H71.4262V17.7975H106.197V17.1045Z" fill="#4079E2"/>
</g>
<g opacity="0.21">
<path opacity="0.21" d="M175.261 82.7138H140.49V83.4068H175.261V82.7138Z" fill="#4079E2"/>
<path opacity="0.21" d="M175.261 75.81H140.49V76.503H175.261V75.81Z" fill="#4079E2"/>
<path opacity="0.21" d="M175.261 68.901H140.49V69.594H175.261V68.901Z" fill="#4079E2"/>
<path opacity="0.21" d="M175.261 61.9972H140.49V62.6903H175.261V61.9972Z" fill="#4079E2"/>
<path opacity="0.21" d="M175.261 55.0883H140.49V55.7813H175.261V55.0883Z" fill="#4079E2"/>
<path opacity="0.21" d="M175.261 79.2645H140.49V79.9575H175.261V79.2645Z" fill="#4079E2"/>
<path opacity="0.21" d="M175.261 72.3555H140.49V73.0485H175.261V72.3555Z" fill="#4079E2"/>
<path opacity="0.21" d="M175.261 65.4518H140.49V66.1447H175.261V65.4518Z" fill="#4079E2"/>
<path opacity="0.21" d="M175.261 58.5428H140.49V59.2358H175.261V58.5428Z" fill="#4079E2"/>
<path opacity="0.21" d="M175.261 51.639H140.49V52.332H175.261V51.639Z" fill="#4079E2"/>
<path opacity="0.21" d="M140.726 82.7138H105.955V83.4068H140.726V82.7138Z" fill="#4079E2"/>
<path opacity="0.21" d="M140.726 75.81H105.955V76.503H140.726V75.81Z" fill="#4079E2"/>
<path opacity="0.21" d="M140.726 68.901H105.955V69.594H140.726V68.901Z" fill="#4079E2"/>
<path opacity="0.21" d="M140.726 61.9972H105.955V62.6903H140.726V61.9972Z" fill="#4079E2"/>
<path opacity="0.21" d="M140.726 55.0883H105.955V55.7813H140.726V55.0883Z" fill="#4079E2"/>
<path opacity="0.21" d="M140.726 79.2645H105.955V79.9575H140.726V79.2645Z" fill="#4079E2"/>
<path opacity="0.21" d="M140.726 72.3555H105.955V73.0485H140.726V72.3555Z" fill="#4079E2"/>
<path opacity="0.21" d="M140.726 65.4518H105.955V66.1447H140.726V65.4518Z" fill="#4079E2"/>
<path opacity="0.21" d="M140.726 58.5428H105.955V59.2358H140.726V58.5428Z" fill="#4079E2"/>
<path opacity="0.21" d="M140.726 51.639H105.955V52.332H140.726V51.639Z" fill="#4079E2"/>
<path opacity="0.21" d="M106.197 82.7138H71.4262V83.4068H106.197V82.7138Z" fill="#4079E2"/>
<path opacity="0.21" d="M106.197 75.81H71.4262V76.503H106.197V75.81Z" fill="#4079E2"/>
<path opacity="0.21" d="M106.197 68.901H71.4262V69.594H106.197V68.901Z" fill="#4079E2"/>
<path opacity="0.21" d="M106.197 61.9972H71.4262V62.6903H106.197V61.9972Z" fill="#4079E2"/>
<path opacity="0.21" d="M106.197 55.0883H71.4262V55.7813H106.197V55.0883Z" fill="#4079E2"/>
<path opacity="0.21" d="M106.197 79.2645H71.4262V79.9575H106.197V79.2645Z" fill="#4079E2"/>
<path opacity="0.21" d="M106.197 72.3555H71.4262V73.0485H106.197V72.3555Z" fill="#4079E2"/>
<path opacity="0.21" d="M106.197 65.4518H71.4262V66.1447H106.197V65.4518Z" fill="#4079E2"/>
<path opacity="0.21" d="M106.197 58.5428H71.4262V59.2358H106.197V58.5428Z" fill="#4079E2"/>
<path opacity="0.21" d="M106.197 51.639H71.4262V52.332H106.197V51.639Z" fill="#4079E2"/>
</g>
<g opacity="0.21">
<path opacity="0.21" d="M175.261 117.248H140.49V117.941H175.261V117.248Z" fill="#4079E2"/>
<path opacity="0.21" d="M175.261 110.339H140.49V111.032H175.261V110.339Z" fill="#4079E2"/>
<path opacity="0.21" d="M175.261 103.435H140.49V104.128H175.261V103.435Z" fill="#4079E2"/>
<path opacity="0.21" d="M175.261 96.5265H140.49V97.2195H175.261V96.5265Z" fill="#4079E2"/>
<path opacity="0.21" d="M175.261 89.6227H140.49V90.3158H175.261V89.6227Z" fill="#4079E2"/>
<path opacity="0.21" d="M175.261 113.794H140.49V114.487H175.261V113.794Z" fill="#4079E2"/>
<path opacity="0.21" d="M175.261 106.89H140.49V107.583H175.261V106.89Z" fill="#4079E2"/>
<path opacity="0.21" d="M175.261 99.981H140.49V100.674H175.261V99.981Z" fill="#4079E2"/>
<path opacity="0.21" d="M175.261 93.0772H140.49V93.7702H175.261V93.0772Z" fill="#4079E2"/>
<path opacity="0.21" d="M175.261 86.1682H140.49V86.8613H175.261V86.1682Z" fill="#4079E2"/>
<path opacity="0.21" d="M140.726 117.248H105.955V117.941H140.726V117.248Z" fill="#4079E2"/>
<path opacity="0.21" d="M140.726 110.339H105.955V111.032H140.726V110.339Z" fill="#4079E2"/>
<path opacity="0.21" d="M140.726 103.435H105.955V104.128H140.726V103.435Z" fill="#4079E2"/>
<path opacity="0.21" d="M140.726 96.5265H105.955V97.2195H140.726V96.5265Z" fill="#4079E2"/>
<path opacity="0.21" d="M140.726 89.6227H105.955V90.3158H140.726V89.6227Z" fill="#4079E2"/>
<path opacity="0.21" d="M140.726 113.794H105.955V114.487H140.726V113.794Z" fill="#4079E2"/>
<path opacity="0.21" d="M140.726 106.89H105.955V107.583H140.726V106.89Z" fill="#4079E2"/>
<path opacity="0.21" d="M140.726 99.981H105.955V100.674H140.726V99.981Z" fill="#4079E2"/>
<path opacity="0.21" d="M140.726 93.0772H105.955V93.7702H140.726V93.0772Z" fill="#4079E2"/>
<path opacity="0.21" d="M140.726 86.1682H105.955V86.8613H140.726V86.1682Z" fill="#4079E2"/>
<path opacity="0.21" d="M106.197 117.248H71.4262V117.941H106.197V117.248Z" fill="#4079E2"/>
<path opacity="0.21" d="M106.197 110.339H71.4262V111.032H106.197V110.339Z" fill="#4079E2"/>
<path opacity="0.21" d="M106.197 103.435H71.4262V104.128H106.197V103.435Z" fill="#4079E2"/>
<path opacity="0.21" d="M106.197 96.5265H71.4262V97.2195H106.197V96.5265Z" fill="#4079E2"/>
<path opacity="0.21" d="M106.197 89.6227H71.4262V90.3158H106.197V89.6227Z" fill="#4079E2"/>
<path opacity="0.21" d="M106.197 113.794H71.4262V114.487H106.197V113.794Z" fill="#4079E2"/>
<path opacity="0.21" d="M106.197 106.89H71.4262V107.583H106.197V106.89Z" fill="#4079E2"/>
<path opacity="0.21" d="M106.197 99.981H71.4262V100.674H106.197V99.981Z" fill="#4079E2"/>
<path opacity="0.21" d="M106.197 93.0772H71.4262V93.7702H106.197V93.0772Z" fill="#4079E2"/>
<path opacity="0.21" d="M106.197 86.1682H71.4262V86.8613H106.197V86.1682Z" fill="#4079E2"/>
</g>
<g opacity="0.21">
<path opacity="0.21" d="M175.261 151.778H140.49V152.471H175.261V151.778Z" fill="#4079E2"/>
<path opacity="0.21" d="M175.261 144.874H140.49V145.567H175.261V144.874Z" fill="#4079E2"/>
<path opacity="0.21" d="M175.261 137.965H140.49V138.658H175.261V137.965Z" fill="#4079E2"/>
<path opacity="0.21" d="M175.261 131.061H140.49V131.754H175.261V131.061Z" fill="#4079E2"/>
<path opacity="0.21" d="M175.261 124.152H140.49V124.845H175.261V124.152Z" fill="#4079E2"/>
<path opacity="0.21" d="M175.261 148.328H140.49V149.021H175.261V148.328Z" fill="#4079E2"/>
<path opacity="0.21" d="M175.261 141.419H140.49V142.112H175.261V141.419Z" fill="#4079E2"/>
<path opacity="0.21" d="M175.261 134.516H140.49V135.208H175.261V134.516Z" fill="#4079E2"/>
<path opacity="0.21" d="M175.261 127.607H140.49V128.3H175.261V127.607Z" fill="#4079E2"/>
<path opacity="0.21" d="M175.261 120.703H140.49V121.396H175.261V120.703Z" fill="#4079E2"/>
<path opacity="0.21" d="M140.726 151.778H105.955V152.471H140.726V151.778Z" fill="#4079E2"/>
<path opacity="0.21" d="M140.726 144.874H105.955V145.567H140.726V144.874Z" fill="#4079E2"/>
<path opacity="0.21" d="M140.726 137.965H105.955V138.658H140.726V137.965Z" fill="#4079E2"/>
<path opacity="0.21" d="M140.726 131.061H105.955V131.754H140.726V131.061Z" fill="#4079E2"/>
<path opacity="0.21" d="M140.726 124.152H105.955V124.845H140.726V124.152Z" fill="#4079E2"/>
<path opacity="0.21" d="M140.726 148.328H105.955V149.021H140.726V148.328Z" fill="#4079E2"/>
<path opacity="0.21" d="M140.726 141.419H105.955V142.112H140.726V141.419Z" fill="#4079E2"/>
<path opacity="0.21" d="M140.726 134.516H105.955V135.208H140.726V134.516Z" fill="#4079E2"/>
<path opacity="0.21" d="M140.726 127.607H105.955V128.3H140.726V127.607Z" fill="#4079E2"/>
<path opacity="0.21" d="M140.726 120.703H105.955V121.396H140.726V120.703Z" fill="#4079E2"/>
<path opacity="0.21" d="M106.197 151.778H71.4262V152.471H106.197V151.778Z" fill="#4079E2"/>
<path opacity="0.21" d="M106.197 144.874H71.4262V145.567H106.197V144.874Z" fill="#4079E2"/>
<path opacity="0.21" d="M106.197 137.965H71.4262V138.658H106.197V137.965Z" fill="#4079E2"/>
<path opacity="0.21" d="M106.197 131.061H71.4262V131.754H106.197V131.061Z" fill="#4079E2"/>
<path opacity="0.21" d="M106.197 124.152H71.4262V124.845H106.197V124.152Z" fill="#4079E2"/>
<path opacity="0.21" d="M106.197 148.328H71.4262V149.021H106.197V148.328Z" fill="#4079E2"/>
<path opacity="0.21" d="M106.197 141.419H71.4262V142.112H106.197V141.419Z" fill="#4079E2"/>
<path opacity="0.21" d="M106.197 134.516H71.4262V135.208H106.197V134.516Z" fill="#4079E2"/>
<path opacity="0.21" d="M106.197 127.607H71.4262V128.3H106.197V127.607Z" fill="#4079E2"/>
<path opacity="0.21" d="M106.197 120.703H71.4262V121.396H106.197V120.703Z" fill="#4079E2"/>
</g>
</g>
<path d="M158.55 117.626C161.207 121.879 163.627 126.325 165.9 130.877C163.679 114.481 174.521 107.31 174.521 107.31C177.046 126.052 170.767 133.15 168.095 135.277C169.454 138.17 170.72 141.12 171.927 144.107C173.864 126.541 186.034 122.388 186.034 122.388C183.729 140.527 176.946 146.375 173.581 148.192C175.466 153.158 177.13 158.245 178.61 163.417C182.201 144.774 195.164 142.054 195.164 142.054C190.591 161.044 182.753 165.601 179.524 166.693C182.836 179.009 184.987 191.608 185.95 204.325C186.071 205.942 183.64 206.425 183.519 204.802C182.929 196.911 181.877 189.061 180.369 181.293C159.626 180.768 159.091 169.864 159.091 169.864C169.822 168.205 175.702 171.328 178.904 174.736C177.723 169.591 176.416 164.493 174.841 159.511C173.896 160.356 165.165 167.386 148.712 154.786C148.712 154.786 161.18 145.152 174.767 159.253C172.253 151.358 169.21 143.64 165.659 136.153C143.11 141.23 140.27 130.41 140.27 130.41C153.962 125.218 160.976 129.612 164.094 133.035C161.863 128.562 159.495 124.199 156.917 120.025C138.479 111.331 141.902 100.275 141.902 100.275C155.81 103.855 158.272 112.843 158.55 117.626ZM276.418 85.2022C271.131 91.1242 266.117 97.3875 261.261 103.813C269.939 79.6635 256.484 67.1107 256.484 67.1107C246.587 94.7467 253.402 106.412 256.599 110.04C253.659 114.14 250.824 118.356 248.078 122.64C251.071 96.0225 234.68 87.7905 234.68 87.7905C232.055 115.327 239.999 125.202 244.309 128.478C239.915 135.597 235.799 142.942 231.919 150.428C232.859 121.931 214.83 115.715 214.83 115.715C215.219 144.889 225.157 152.99 229.504 155.179C220.637 172.936 213.327 191.427 207.653 210.446C206.939 212.845 210.331 213.964 211.045 211.559C214.554 199.793 218.701 188.225 223.466 176.909C253.922 179.55 258.3 163.275 258.3 163.275C243.18 159.017 233.557 162.75 227.75 167.291C231.179 159.789 234.78 152.376 238.728 145.178C239.825 146.601 250.247 158.576 278.45 142.438C278.45 142.438 263.435 125.958 238.917 144.821C245.224 133.381 252.223 122.335 259.875 111.746C291.118 123.076 298.84 107.352 298.84 107.352C280.576 97.314 268.884 102.727 263.204 107.299C267.929 100.973 272.843 94.836 277.988 89.019C307.823 79.1017 306.495 61.95 306.495 61.95C284.991 65.0475 278.423 78.0937 276.418 85.2022Z" fill="#97CAFF"/>
<path d="M154.404 203.009L147.463 195.362L49.4622 284.317L56.4029 291.964L154.404 203.009Z" fill="#53B1FB"/>
<path d="M277.552 209.638C263.954 221.978 247.002 230.01 228.839 232.716C210.677 235.423 192.12 232.683 175.515 224.843C158.909 217.003 145.002 204.415 135.551 188.671C126.1 172.927 121.529 154.734 122.418 136.392C123.306 118.051 129.613 100.385 140.542 85.6277C151.47 70.8708 166.529 59.6859 183.814 53.4873C201.099 47.2888 219.834 46.355 237.65 50.804C255.466 55.2531 271.563 64.8852 283.904 78.4822C292.099 87.5109 298.436 98.0654 302.552 109.543C306.668 121.021 308.483 133.197 307.893 145.376C307.303 157.555 304.32 169.498 299.114 180.524C293.908 191.551 286.581 201.443 277.552 209.638ZM272.249 89.061C261.997 77.7694 248.626 69.7715 233.829 66.0789C219.031 62.3863 203.47 63.1647 189.115 68.3158C174.759 73.4669 162.254 82.7592 153.18 95.0177C144.106 107.276 138.87 121.95 138.136 137.184C137.402 152.418 141.202 167.528 149.055 180.602C156.908 193.676 168.462 204.128 182.255 210.636C196.049 217.144 211.462 219.415 226.546 217.163C241.631 214.911 255.708 208.236 266.999 197.983C282.139 184.235 291.197 165.036 292.181 144.609C293.166 124.183 285.996 104.201 272.249 89.061Z" fill="#53B1FB"/>
<path opacity="0.22" d="M266.978 197.983C255.688 208.236 241.61 214.911 226.525 217.163C211.441 219.415 196.028 217.144 182.234 210.636C168.441 204.128 156.887 193.676 149.034 180.602C141.181 167.528 137.381 152.418 138.115 137.184C138.849 121.95 144.085 107.276 153.159 95.0177C162.233 82.7592 174.739 73.4669 189.094 68.3158C203.449 63.1647 219.01 62.3863 233.808 66.0789C248.606 69.7715 261.976 77.7694 272.228 89.061C285.974 104.202 293.143 124.183 292.158 144.609C291.174 165.035 282.116 184.234 266.978 197.983Z" fill="#99D0FB"/>
<path d="M51.9225 296.147L43.4385 286.797C42.7823 286.074 42.2752 285.228 41.9463 284.308C41.6175 283.389 41.4733 282.413 41.5221 281.438C41.5708 280.463 41.8116 279.506 42.2305 278.624C42.6495 277.742 43.2384 276.951 43.9635 276.297C74.7548 248.346 86.3783 242.172 105.782 225.372C106.818 224.485 108.159 224.037 109.52 224.121C110.881 224.205 112.156 224.816 113.075 225.823L120.073 233.53C120.987 234.543 121.471 235.871 121.423 237.234C121.375 238.597 120.799 239.888 119.816 240.833C101.236 258.526 93.2453 268.695 62.454 296.646C61.7311 297.307 60.8845 297.819 59.963 298.152C59.0415 298.485 58.0633 298.633 57.0845 298.587C56.1058 298.54 55.1459 298.301 54.26 297.882C53.3741 297.464 52.5797 296.874 51.9225 296.147Z" fill="#FFBC47"/>
<path opacity="0.55" d="M51.9225 296.147L120.046 233.551C120.961 234.564 121.445 235.892 121.397 237.255C121.349 238.618 120.772 239.909 119.789 240.854C101.209 258.547 93.219 268.716 62.4277 296.667C61.704 297.323 60.8581 297.83 59.9384 298.159C59.0186 298.488 58.043 298.632 57.0674 298.584C56.0918 298.536 55.1352 298.296 54.2524 297.878C53.3696 297.46 52.5779 296.872 51.9225 296.147Z" fill="#FF7E33"/>
<path opacity="0.3" d="M231.163 107.163C228.069 109.97 224.213 111.797 220.082 112.413C215.95 113.029 211.729 112.406 207.951 110.623C204.174 108.839 201.01 105.976 198.86 102.395C196.71 98.8133 195.67 94.6748 195.872 90.5025C196.074 86.3301 197.508 82.3114 199.994 78.9544C202.48 75.5974 205.906 73.0528 209.838 71.6426C213.77 70.2324 218.031 70.0197 222.084 71.0316C226.137 72.0434 229.799 74.2343 232.606 77.3272C234.471 79.381 235.912 81.7819 236.849 84.3929C237.785 87.0038 238.198 89.7736 238.064 92.5441C237.93 95.3147 237.252 98.0317 236.067 100.54C234.883 103.048 233.217 105.299 231.163 107.163ZM179.781 130.961C178.361 132.25 176.591 133.089 174.694 133.372C172.797 133.655 170.859 133.37 169.124 132.551C167.39 131.733 165.937 130.418 164.95 128.774C163.963 127.13 163.485 125.23 163.578 123.314C163.67 121.398 164.329 119.553 165.47 118.012C166.611 116.471 168.183 115.302 169.989 114.655C171.794 114.007 173.751 113.909 175.611 114.374C177.472 114.838 179.153 115.844 180.442 117.264C182.17 119.169 183.07 121.681 182.946 124.249C182.822 126.818 181.684 129.232 179.781 130.961Z" fill="white"/>
<path d="M289.154 171.927C287.102 170.116 278.801 172.394 278.801 172.394L278.25 176.72C279.983 178.889 283.81 174.568 286.619 176.92C289.427 179.272 292.635 178.673 292.95 177.865C293.265 177.056 291.202 173.733 289.154 171.927Z" fill="#FEA086"/>
<path d="M280.812 172.305C272.937 171.197 271.514 171.454 263.613 170.929C255.712 170.404 247.569 168.677 241.232 163.663C236.061 159.568 233.772 150.775 231.179 144.837C228.113 137.828 225.661 130.389 219.629 125.496C218.447 124.54 216.767 124.204 215.245 123.711C214.389 123.433 211.817 122.036 210.945 122.32C210.777 122.372 204.409 124.477 199.92 132.573C195.384 140.779 192.15 174.972 192.15 174.972C192.15 174.972 200.991 185.194 210.95 178.395C210.95 178.395 211.596 159.243 216.132 157.878C217.671 157.495 219.17 156.968 220.61 156.303C227.168 162.508 234.35 177.707 242.802 179.928C257.339 183.771 265.902 178.243 280.838 176.967C280.828 175.423 280.817 173.864 280.812 172.305Z" fill="white"/>
<path d="M252.809 181.891C249.381 181.883 245.969 181.424 242.66 180.526C237.022 179.03 232.16 172.258 227.435 165.706C225.015 162.356 222.71 159.185 220.521 157.017C219.417 157.506 218.276 157.906 217.109 158.214L216.305 158.45C213.292 159.364 211.775 171.181 211.533 178.4V178.71L211.281 178.878C201.044 185.876 191.856 175.465 191.756 175.36L191.588 175.166L191.615 174.898C191.746 173.497 194.917 140.479 199.463 132.258C204.01 124.036 210.53 121.821 210.803 121.758C211.565 121.506 212.851 122.026 214.442 122.734C214.856 122.918 215.213 123.076 215.439 123.149C215.759 123.254 216.085 123.349 216.41 123.448C217.699 123.734 218.919 124.269 220.001 125.023C225.251 129.292 227.876 135.523 230.412 141.514C230.843 142.543 231.28 143.566 231.725 144.585C232.323 145.966 232.901 147.472 233.515 149.068C235.499 154.255 237.752 160.13 241.605 163.186C246.881 167.359 254.1 169.701 263.681 170.331C266.112 170.494 267.934 170.583 269.514 170.656C273.333 170.792 277.142 171.142 280.922 171.706L281.411 171.775V177.55L280.886 177.592C276.29 178.046 271.73 178.807 267.236 179.87C262.306 180.915 257.775 181.891 252.809 181.891ZM220.694 155.589L220.983 155.857C223.351 158.104 225.766 161.443 228.333 164.981C232.722 171.071 237.694 177.975 242.954 179.366C252.336 181.849 259.145 180.379 267.02 178.678C271.388 177.655 275.815 176.905 280.277 176.431V172.83C276.692 172.306 273.082 171.98 269.462 171.853C267.887 171.775 266.044 171.691 263.603 171.528C253.796 170.877 246.377 168.462 240.923 164.141C236.812 160.886 234.497 154.849 232.46 149.52C231.851 147.945 231.278 146.438 230.685 145.089C230.239 144.065 229.803 143.031 229.373 141.997C226.9 136.127 224.348 130.058 219.303 125.969C218.33 125.31 217.242 124.841 216.095 124.588L215.103 124.283C214.851 124.199 214.457 124.026 214.001 123.827C213.271 123.506 211.565 122.745 211.134 122.887C210.877 122.971 204.787 125.018 200.44 132.862C196.24 140.479 193.09 171.502 192.759 174.746C194.03 176.116 201.71 183.745 210.415 178.043C210.536 174.961 211.397 158.676 216.001 157.285L216.809 157.048C218.039 156.733 219.234 156.299 220.379 155.752L220.694 155.589Z" fill="#BACEDB"/>
<path d="M220.789 182.369C218.836 182.856 216.871 183.381 214.893 183.944C213.601 182.384 212.623 180.589 212.011 178.657C212.011 178.657 202.776 184.191 192.176 174.982C192.176 174.982 169.601 207.601 191.919 216.457L192.092 216.526L192.575 216.704C192.838 216.804 193.1 216.893 193.363 216.977L193.552 217.04C193.914 217.15 194.276 217.261 194.644 217.355L194.733 217.381C195.158 217.497 195.589 217.602 196.019 217.696C224.999 224.065 254.499 211.118 254.499 211.118C256.952 210.384 259.328 209.417 261.597 208.231L271.136 203.091C270.464 203.453 260.421 209.149 256.127 224.831C251.68 241.059 244.844 269.829 244.844 269.829H251.197C251.197 269.829 294.425 208.231 291.69 197.169C288.955 186.107 247.354 175.733 220.789 182.369Z" fill="#1657AB"/>
<path d="M258.741 275.126C255.775 274.564 252.583 274.076 252.357 273.089C252.025 271.969 251.634 270.866 251.186 269.787H244.834C244.016 273.286 243.633 276.873 243.695 280.465H264.894C264.894 280.465 261.702 275.688 258.741 275.126Z" fill="#090B3C"/>
<path d="M228.018 104.853C221.193 104.853 219.371 108.092 219.371 108.092C217.928 110.617 216.489 115.3 216.846 116.739C217.022 117.347 217.297 117.922 217.66 118.44C218.43 119.56 219.431 120.502 220.596 121.203C221.76 121.904 223.061 122.347 224.411 122.503C229.457 123.223 233.42 114.576 233.783 112.418C234.145 110.26 234.859 104.853 228.018 104.853Z" fill="#FEA086"/>
<path d="M213.749 122.934C213.749 122.934 219.461 126.572 220.5 125.034C221.54 123.496 225.173 118.288 225.173 118.288L219.975 112.555L213.749 122.934Z" fill="#FEA086"/>
<path d="M233.179 101.766C228.328 99.561 228.328 95.1457 223.036 96.9097C217.744 98.6737 209.36 103.53 201.863 100.002C194.366 96.474 186.428 95.5867 181.571 98.679C176.715 101.771 171.428 106.176 164.372 104.853C157.316 103.53 154.229 101.766 152.46 107.058C150.691 112.35 150.696 125.58 169.223 126.903C187.751 128.226 194.366 119.847 200.099 116.76C205.832 113.673 211.423 120.298 217.66 118.44C217.66 118.44 218.185 111.909 219.949 110.565C221.713 109.221 221.272 112.329 223.477 112.77C225.682 113.211 229.21 110.145 230.533 109.242C231.856 108.339 232.738 109.242 233.158 111.447C233.578 113.652 231.982 116.697 231.982 116.697C231.982 116.697 236.707 112.77 236.245 107.919C235.783 103.068 238.03 103.95 233.179 101.766Z" fill="#FF7E33"/>
<path d="M317.489 141.052C310.534 153.347 303.58 165.655 296.625 177.975C296.342 178.5 295.943 179.025 295.675 179.576H295.764C296.063 179.377 296.357 179.639 295.764 179.576C295.683 179.633 295.616 179.709 295.57 179.797C295.57 179.844 295.523 179.891 295.507 179.938C295.528 179.886 295.549 179.839 295.57 179.797C295.601 179.718 295.638 179.644 295.675 179.566L295.475 179.534C293.276 179.104 290.588 179.534 288.356 179.534H243.994C242.744 179.534 242.744 181.587 243.994 181.587H294.872C296.1 181.587 296.557 181.666 297.355 180.674C298.961 178.684 300.08 175.859 301.345 173.623L308.17 161.59L319.195 142.102C319.809 140.947 318.15 139.912 317.489 141.052Z" fill="#042C37"/>
<path d="M295.764 179.55H295.675C295.638 179.629 295.601 179.702 295.57 179.781C295.615 179.689 295.681 179.61 295.764 179.55Z" fill="#042C37"/>
</svg>
