<svg width="40" height="40" viewBox="0 0 40 40" fill="none" xmlns="http://www.w3.org/2000/svg">
<rect opacity="0.1" width="40" height="40" rx="5" fill="#6D2E5D"/>
<g clip-path="url(#clip0_3177_17699)">
<path d="M30.9471 32.366L33.4785 8.86719L15.9681 6.98088L13.4367 30.4797L30.9471 32.366Z" fill="#481E3D"/>
<path d="M8.17823 30.8112L25.7451 29.5767L24.0884 6.00203L6.52151 7.23656L8.17823 30.8112Z" fill="#8F3D7A"/>
<path d="M19.9854 29.9818L25.7476 29.5766L24.0897 6L19.9854 6.28864V29.9818Z" fill="#6D2E5D"/>
<path d="M11.4062 33.9998H27.3763V10.6504H11.4062V33.9998Z" fill="#E0B8D6"/>
<path d="M27.3771 10.6504H19.9854V34H27.3771V10.6504Z" fill="#A14589"/>
<path d="M24.7466 22.3994H14.0391V24.0412H24.7466V22.3994Z" fill="#6D2E5D"/>
<path d="M24.7466 25.3193H14.0391V26.9611H24.7466V25.3193Z" fill="#6D2E5D"/>
<path d="M24.7466 28.2397H14.0391V29.8815H24.7466V28.2397Z" fill="#6D2E5D"/>
<path d="M24.7457 22.3994H19.9854V24.0412H24.7457V22.3994Z" fill="#481E3D"/>
<path d="M24.7457 28.2397H19.9854V29.8815H24.7457V28.2397Z" fill="#481E3D"/>
<path d="M24.7457 25.3193H19.9854V26.9611H24.7457V25.3193Z" fill="#481E3D"/>
<path d="M13.8721 17.6716C13.8721 16.0833 15.091 14.9678 16.7532 14.9678C17.7654 14.9678 18.5632 15.3372 19.0729 16.002L17.9722 16.9845C17.6693 16.6004 17.3074 16.3787 16.8419 16.3787C16.118 16.3787 15.6304 16.8811 15.6304 17.6715C15.6304 18.462 16.118 18.9643 16.8419 18.9643C17.3074 18.9643 17.6693 18.7427 17.9722 18.3585L19.0729 19.341C18.5632 20.0058 17.7653 20.3753 16.7532 20.3753C15.091 20.3755 13.8721 19.26 13.8721 17.6716Z" fill="#6D2E5D"/>
<path d="M25.1021 15.0859L22.9154 20.2573H21.2014L19.0146 15.0859H20.8911L22.1248 18.1075L23.3881 15.0859H25.1021Z" fill="#A14589"/>
<path d="M23.388 15.0859L22.1248 18.1075L20.891 15.0859H19.9854V17.3818L21.2013 20.2573H22.9153L25.1019 15.0859H23.388Z" fill="#481E3D"/>
</g>
<defs>
<clipPath id="clip0_3177_17699">
<rect width="28" height="28" fill="white" transform="translate(6 6)"/>
</clipPath>
</defs>
</svg>
