<svg width="100" height="100" viewBox="0 0 100 100" fill="none" xmlns="http://www.w3.org/2000/svg">
<path d="M50 100C77.6142 100 100 77.6142 100 50C100 22.3858 77.6142 0 50 0C22.3858 0 0 22.3858 0 50C0 77.6142 22.3858 100 50 100Z" fill="#50B748"/>
<path d="M60.5226 98.82C61.4808 98.6336 62.4334 98.4192 63.379 98.1771C64.9831 97.73 66.5639 97.2031 68.1154 96.5983C69.6701 95.9967 71.1939 95.3177 72.6808 94.5638C74.1673 93.8066 75.615 92.9755 77.0184 92.0736C78.4195 91.1734 79.7748 90.2038 81.0792 89.1683C82.3869 88.1304 83.6417 87.0277 84.839 85.8643C86.033 84.7037 87.1683 83.4842 88.2407 82.2103C89.3155 80.9351 90.3259 79.607 91.268 78.2308C92.2092 76.8565 93.081 75.436 93.8803 73.9746C94.6792 72.5117 95.4044 71.0097 96.0532 69.4743C96.7035 67.9387 97.2766 66.3715 97.7703 64.7786C98.1926 63.3845 98.5537 61.9726 98.8527 60.5469L69.1489 30.8431C63.8519 25.546 56.9348 22.9004 50.0083 22.9004C43.0814 22.9004 36.1484 25.5456 30.8514 30.8431C20.2572 41.4373 20.2572 58.5546 30.8514 69.1488L60.5226 98.82Z" fill="#10A711"/>
<path d="M50.0039 22.9041C56.9307 22.9041 63.8556 25.5497 69.1526 30.8468C79.7468 41.4409 79.7468 58.5583 69.1526 69.1524C58.5585 79.7466 41.4411 79.7466 30.847 69.1524C20.2528 58.5583 20.2528 41.4409 30.847 30.8468C36.144 25.5497 43.077 22.9041 50.0039 22.9041ZM62.3411 41.6622C61.9465 41.6984 61.5632 41.85 61.2506 42.0935L46.0325 53.5111L38.9769 46.4555C37.4462 44.8612 34.4366 47.8708 36.0309 49.4014L44.3642 57.7348C45.0649 58.4343 46.2888 58.5222 47.0823 57.9301L63.749 45.4301C65.1517 44.4091 64.2875 41.687 62.5527 41.6622C62.4822 41.6586 62.4116 41.6586 62.3411 41.6622L62.3411 41.6622Z" fill="white"/>
</svg>
