<svg width="24" height="24" viewBox="0 0 24 24" fill="none" xmlns="http://www.w3.org/2000/svg">
<g clip-path="url(#clip0_3104_16618)">
<path d="M15.0002 6.49951C14.4482 6.49951 14.0002 6.05151 14.0002 5.49951V3.99951H10.0002V5.49951C10.0002 6.05151 9.55224 6.49951 9.00024 6.49951C8.44824 6.49951 8.00024 6.05151 8.00024 5.49951V3.99951C8.00024 2.89651 8.89724 1.99951 10.0002 1.99951H14.0002C15.1032 1.99951 16.0002 2.89651 16.0002 3.99951V5.49951C16.0002 6.05151 15.5522 6.49951 15.0002 6.49951Z" fill="white"/>
<path d="M12.71 15.3796C12.53 15.4496 12.27 15.4996 12 15.4996C11.73 15.4996 11.47 15.4496 11.23 15.3596L0 11.6196V19.2496C0 20.7696 1.23 21.9996 2.75 21.9996H21.25C22.77 21.9996 24 20.7696 24 19.2496V11.6196L12.71 15.3796Z" fill="white"/>
<path d="M24 7.74951V10.0395L12.24 13.9595C12.16 13.9895 12.08 13.9995 12 13.9995C11.92 13.9995 11.84 13.9895 11.76 13.9595L0 10.0395V7.74951C0 6.22951 1.23 4.99951 2.75 4.99951H21.25C22.77 4.99951 24 6.22951 24 7.74951Z" fill="white"/>
</g>
<defs>
<clipPath id="clip0_3104_16618">
<rect width="24" height="24" fill="white"/>
</clipPath>
</defs>
</svg>
