<svg width="14" height="14" viewBox="0 0 14 14" fill="none" xmlns="http://www.w3.org/2000/svg">
<path d="M11.5678 5.07497L8.92527 2.43247C8.3711 1.8783 7.60694 1.5808 6.82527 1.62163L3.9086 1.76163C2.74194 1.81413 1.81444 2.74163 1.7561 3.90247L1.6161 6.81913C1.5811 7.6008 1.87277 8.36497 2.42694 8.91913L5.06944 11.5616C6.15444 12.6466 7.9161 12.6466 9.00694 11.5616L11.5678 9.0008C12.6586 7.92163 12.6586 6.15997 11.5678 5.07497ZM5.54194 7.22163C4.61444 7.22163 3.86194 6.46913 3.86194 5.54163C3.86194 4.61413 4.61444 3.86163 5.54194 3.86163C6.46944 3.86163 7.22194 4.61413 7.22194 5.54163C7.22194 6.46913 6.46944 7.22163 5.54194 7.22163Z" fill="white"/>
</svg>
