<svg width="10" height="10" viewBox="0 0 10 10" fill="currentColor" xmlns="http://www.w3.org/2000/svg">
<path d="M0.875185 0.875246C0.549743 1.20068 0.549743 1.72832 0.875185 2.05375L3.8215 5.00001L0.875193 7.94635C0.549751 8.27176 0.549751 8.79943 0.875193 9.12485C1.20063 9.45026 1.72827 9.45026 2.0537 9.12485L5 6.17851L7.94625 9.12485C8.27167 9.45026 8.79933 9.45026 9.12475 9.12485C9.45017 8.79935 9.45017 8.27176 9.12475 7.94635L6.1785 5.00001L9.12475 2.05375C9.45017 1.72832 9.45017 1.20068 9.12475 0.875246C8.79933 0.549812 8.27167 0.549812 7.94625 0.875246L5 3.82151L2.05369 0.875246C1.72826 0.549804 1.20062 0.549804 0.875185 0.875246Z" />
</svg>
