<svg width="21" height="20" viewBox="0 0 21 20" fill="none" xmlns="http://www.w3.org/2000/svg">
<path d="M19.1797 2.9563H14.6625V2.36504C14.6625 1.06423 13.5983 0 12.2975 0H8.70272C7.4019 0 6.33768 1.06423 6.33768 2.36504V2.9563H1.82044C1.30014 2.9563 0.874512 3.38193 0.874512 3.90224C0.874512 4.42255 1.30014 4.84817 1.82044 4.84817H3.14483L3.52327 16.0821C3.59421 18.1397 5.24971 19.748 7.30742 19.748H13.693C15.7506 19.748 17.4062 18.1398 17.4772 16.0821L17.8556 4.84817H19.18C19.7003 4.84817 20.1259 4.42255 20.1259 3.90224C20.1259 3.38193 19.7002 2.9563 19.1798 2.9563H19.1797ZM8.22958 2.36504C8.22958 2.10488 8.4424 1.89208 8.70255 1.89208H12.2975C12.5576 1.89208 12.7704 2.10489 12.7704 2.36504V2.9563H8.22954L8.22958 2.36504ZM8.60803 14.8052C8.60803 15.3255 8.1824 15.7511 7.66209 15.7511C7.14179 15.7511 6.71616 15.3255 6.71616 14.8052L6.716 7.73369C6.716 7.21338 7.14162 6.78776 7.66193 6.78776C8.18224 6.78776 8.60786 7.21338 8.60786 7.73369L8.60803 14.8052ZM11.446 14.8052C11.446 15.3255 11.0204 15.7511 10.5001 15.7511C9.97979 15.7511 9.55417 15.3255 9.55417 14.8052V7.73369C9.55417 7.21338 9.97979 6.78776 10.5001 6.78776C11.0204 6.78776 11.446 7.21338 11.446 7.73369V14.8052ZM14.2842 14.8052C14.2842 15.3255 13.8586 15.7511 13.3383 15.7511C12.818 15.7511 12.3923 15.3255 12.3923 14.8052L12.3922 7.73369C12.3922 7.21338 12.8178 6.78776 13.3381 6.78776C13.8584 6.78776 14.284 7.21338 14.284 7.73369L14.2842 14.8052Z" fill="#090E11" fill-opacity="0.4"/>
</svg>
