<svg width="206" height="142" viewBox="0 0 206 142" fill="none" xmlns="http://www.w3.org/2000/svg">
<g clip-path="url(#clip0_2661_22959)">
<path d="M98.7755 115.468C130.272 115.468 155.935 89.9109 155.935 58.5207C155.829 27.0245 130.272 1.46701 98.7755 1.46701C67.1733 1.46701 41.6157 27.0245 41.6157 58.4147C41.6157 89.9109 67.1733 115.468 98.7755 115.468Z" fill="#6D2E5D" fill-opacity="0.1"/>
<g filter="url(#filter0_d_2661_22959)">
<path d="M186.393 98.1306C186.393 107.335 178.95 114.778 169.666 114.778C169.506 114.778 168.145 114.778 158.141 114.778C151.177 114.778 140.052 114.778 122.284 114.778H113.801C102.676 115.018 93.7915 106.134 93.7915 95.4094C93.7915 84.6045 102.756 75.6405 114.041 76.2007C123.725 45.9471 168.065 50.189 171.827 81.4831C180.15 82.5236 186.393 89.5668 186.393 98.1306Z" fill="url(#paint0_linear_2661_22959)"/>
</g>
<path d="M169.666 114.778C178.87 114.778 186.393 107.335 186.393 98.1306C186.393 88.9265 178.87 81.4831 169.666 81.4831C160.462 81.4831 152.938 88.9265 152.938 98.1306C152.938 107.335 160.462 114.778 169.666 114.778Z" fill="url(#paint1_linear_2661_22959)"/>
<path d="M142.373 114.938C158.781 114.938 172.147 101.652 172.147 85.2448C172.147 68.8374 158.781 55.5514 142.373 55.5514C125.966 55.5514 112.6 68.8374 112.6 85.2448C112.6 101.652 125.886 114.938 142.373 114.938Z" fill="url(#paint2_linear_2661_22959)"/>
<g filter="url(#filter1_d_2661_22959)">
<path d="M97.8704 35.8425C97.8704 43.7318 91.4904 50.1118 83.5325 50.1118C83.3953 50.1118 82.229 50.1118 73.6537 50.1118C67.6853 50.1118 58.1496 50.1118 42.9199 50.1118H35.648C26.1123 50.3176 18.4974 42.7028 18.4974 33.51C18.4974 24.2487 26.1809 16.5653 35.8538 17.0455C44.1547 -8.88622 82.1604 -5.25029 85.3847 21.5732C92.5194 22.4651 97.8704 28.5021 97.8704 35.8425Z" fill="url(#paint3_linear_2661_22959)"/>
</g>
<path d="M83.5325 50.1119C91.4217 50.1119 97.8704 43.7318 97.8704 35.8426C97.8704 27.9533 91.4217 21.5733 83.5325 21.5733C75.6432 21.5733 69.1946 27.9533 69.1946 35.8426C69.1946 43.7318 75.6432 50.1119 83.5325 50.1119Z" fill="url(#paint4_linear_2661_22959)"/>
<path d="M60.139 50.249C74.2025 50.249 85.6591 38.861 85.6591 24.7975C85.6591 10.734 74.2025 -0.653961 60.139 -0.653961C46.0755 -0.653961 34.6189 10.734 34.6189 24.7975C34.6189 38.861 46.0069 50.249 60.139 50.249Z" fill="url(#paint5_linear_2661_22959)"/>
<g filter="url(#filter2_d_2661_22959)">
<path d="M146.581 38.0635C146.581 42.9943 142.593 46.9818 137.62 46.9818C137.534 46.9818 136.805 46.9818 131.446 46.9818C127.715 46.9818 121.756 46.9818 112.237 46.9818H107.692C101.732 47.1105 96.9729 42.3512 96.9729 36.6057C96.9729 30.8174 101.775 26.0152 107.821 26.3154C113.009 10.1081 136.762 12.3805 138.777 29.1452C143.237 29.7026 146.581 33.4757 146.581 38.0635Z" fill="url(#paint6_linear_2661_22959)"/>
</g>
<path d="M137.62 46.9818C142.551 46.9818 146.581 42.9943 146.581 38.0635C146.581 33.1327 142.551 29.1452 137.62 29.1452C132.689 29.1452 128.659 33.1327 128.659 38.0635C128.659 42.9943 132.689 46.9818 137.62 46.9818Z" fill="url(#paint7_linear_2661_22959)"/>
<path d="M122.999 47.0676C131.789 47.0676 138.949 39.9501 138.949 31.1604C138.949 22.3707 131.789 15.2532 122.999 15.2532C114.209 15.2532 107.049 22.3707 107.049 31.1604C107.049 39.9501 114.167 47.0676 122.999 47.0676Z" fill="url(#paint8_linear_2661_22959)"/>
<g filter="url(#filter3_d_2661_22959)">
<path d="M129.887 37.995L130.627 97.5456C130.627 99.58 128.963 101.152 126.928 101.152H68.8572C66.8229 101.152 65.1584 99.4875 65.1584 97.5456V20.9805C65.1584 18.9462 66.8229 17.3742 68.8572 17.3742H110.931L129.887 37.995Z" fill="url(#paint9_linear_2661_22959)"/>
</g>
<path d="M92.9298 88.4263H91.74C91.4813 88.4263 91.2744 88.1852 91.2744 87.896C91.2744 87.6068 91.4813 87.3658 91.74 87.3658H92.9298C93.1884 87.3658 93.3954 87.6068 93.3954 87.896C93.3954 88.2334 93.1884 88.4263 92.9298 88.4263Z" fill="#E8C9E0"/>
<path d="M86.279 88.4263H75.0603C74.6417 88.4263 74.3068 88.1852 74.3068 87.896C74.3068 87.6068 74.6417 87.3658 75.0603 87.3658H86.279C86.6976 87.3658 87.0325 87.6068 87.0325 87.896C87.0325 88.2334 86.6976 88.4263 86.279 88.4263Z" fill="#EDD4E7"/>
<path d="M102.82 30.0999H75.4872C74.8516 30.0999 74.3068 29.6104 74.3068 29.0394C74.3068 28.4684 74.8516 27.9789 75.4872 27.9789H102.82C103.455 27.9789 104 28.4684 104 29.0394C104 29.6104 103.455 30.0999 102.82 30.0999Z" fill="#EDD4E7"/>
<path d="M85.9495 36.4628H75.4801C74.8483 36.4628 74.3068 35.9734 74.3068 35.4023C74.3068 34.8313 74.8483 34.3419 75.4801 34.3419H85.8592C86.491 34.3419 87.0325 34.8313 87.0325 35.4023C87.0325 35.9734 86.491 36.4628 85.9495 36.4628Z" fill="#EDD4E7"/>
<path d="M111.155 17.3742V34.3038C111.155 36.6815 113.203 38.5837 115.531 38.5837L129.848 38.0535" fill="#CD89BC"/>
<path d="M88.3797 47.6127C91.0621 45.8932 94.226 44.9303 97.5962 44.9303C106.813 44.9303 114.31 52.3585 114.31 61.5749C114.31 70.7913 106.813 78.2195 97.5962 78.2195C88.3797 78.2195 80.8828 70.7913 80.8828 61.5749C80.7452 55.7286 83.7715 50.639 88.3797 47.6127Z" fill="url(#paint10_linear_2661_22959)"/>
<path d="M98.7974 53.9683L103.578 59.1939C104.141 59.8087 104.141 60.8845 103.578 61.4993C103.016 62.114 102.032 62.114 101.399 61.4993L99.2192 59.1939V67.647C99.2192 68.5691 98.5161 69.3376 97.6724 69.3376C96.8287 69.3376 96.1257 68.5691 96.1257 67.647V59.1939L93.9461 61.4993C93.3837 62.114 92.3993 62.114 91.7666 61.4993C91.415 61.115 91.2744 60.7308 91.2744 60.3466C91.2744 59.9623 91.415 59.4244 91.7666 59.1939L96.5475 53.9683C96.7584 53.7378 97.2506 53.4304 97.6021 53.4304C97.9537 53.4304 98.5864 53.5841 98.7974 53.9683Z" fill="white"/>
<g filter="url(#filter4_d_2661_22959)">
<path d="M80.8312 73.0593C80.8312 77.9901 76.8437 81.9776 71.87 81.9776C71.7843 81.9776 71.0554 81.9776 65.6958 81.9776C61.9656 81.9776 56.0057 81.9776 46.4872 81.9776H41.9423C35.9824 82.1062 31.2231 77.347 31.2231 71.6015C31.2231 65.8132 36.0253 61.011 42.0709 61.3112C47.2589 45.1038 71.0125 47.3763 73.0277 64.141C77.4869 64.6984 80.8312 68.4715 80.8312 73.0593Z" fill="url(#paint11_linear_2661_22959)"/>
</g>
<path d="M71.8701 81.9776C76.8009 81.9776 80.8313 77.9901 80.8313 73.0593C80.8313 68.1285 76.8009 64.141 71.8701 64.141C66.9393 64.141 62.9089 68.1285 62.9089 73.0593C62.9089 77.9901 66.9393 81.9776 71.8701 81.9776Z" fill="url(#paint12_linear_2661_22959)"/>
<path d="M57.2492 82.0633C66.0389 82.0633 73.1993 74.9458 73.1993 66.1562C73.1993 57.3665 66.0389 50.249 57.2492 50.249C48.4596 50.249 41.2992 57.3665 41.2992 66.1562C41.2992 74.9458 48.4167 82.0633 57.2492 82.0633Z" fill="url(#paint13_linear_2661_22959)"/>
</g>
<defs>
<filter id="filter0_d_2661_22959" x="71.1836" y="44.3198" width="137.818" height="104.375" filterUnits="userSpaceOnUse" color-interpolation-filters="sRGB">
<feFlood flood-opacity="0" result="BackgroundImageFix"/>
<feColorMatrix in="SourceAlpha" type="matrix" values="0 0 0 0 0 0 0 0 0 0 0 0 0 0 0 0 0 0 127 0" result="hardAlpha"/>
<feOffset dy="11.3039"/>
<feGaussianBlur stdDeviation="11.3039"/>
<feColorMatrix type="matrix" values="0 0 0 0 0.562581 0 0 0 0 0.237419 0 0 0 0 0.48 0 0 0 0.27 0"/>
<feBlend mode="normal" in2="BackgroundImageFix" result="effect1_dropShadow_2661_22959"/>
<feBlend mode="normal" in="SourceGraphic" in2="effect1_dropShadow_2661_22959" result="shape"/>
</filter>
<filter id="filter1_d_2661_22959" x="-4.11046" y="-11.8959" width="124.589" height="95.9236" filterUnits="userSpaceOnUse" color-interpolation-filters="sRGB">
<feFlood flood-opacity="0" result="BackgroundImageFix"/>
<feColorMatrix in="SourceAlpha" type="matrix" values="0 0 0 0 0 0 0 0 0 0 0 0 0 0 0 0 0 0 127 0" result="hardAlpha"/>
<feOffset dy="11.3039"/>
<feGaussianBlur stdDeviation="11.3039"/>
<feColorMatrix type="matrix" values="0 0 0 0 0.562581 0 0 0 0 0.237419 0 0 0 0 0.48 0 0 0 0.24 0"/>
<feBlend mode="normal" in2="BackgroundImageFix" result="effect1_dropShadow_2661_22959"/>
<feBlend mode="normal" in="SourceGraphic" in2="effect1_dropShadow_2661_22959" result="shape"/>
</filter>
<filter id="filter2_d_2661_22959" x="74.365" y="3.98804" width="94.8238" height="76.9082" filterUnits="userSpaceOnUse" color-interpolation-filters="sRGB">
<feFlood flood-opacity="0" result="BackgroundImageFix"/>
<feColorMatrix in="SourceAlpha" type="matrix" values="0 0 0 0 0 0 0 0 0 0 0 0 0 0 0 0 0 0 127 0" result="hardAlpha"/>
<feOffset dy="11.3039"/>
<feGaussianBlur stdDeviation="11.3039"/>
<feColorMatrix type="matrix" values="0 0 0 0 0.562581 0 0 0 0 0.237419 0 0 0 0 0.48 0 0 0 0.27 0"/>
<feBlend mode="normal" in2="BackgroundImageFix" result="effect1_dropShadow_2661_22959"/>
<feBlend mode="normal" in="SourceGraphic" in2="effect1_dropShadow_2661_22959" result="shape"/>
</filter>
<filter id="filter3_d_2661_22959" x="42.5506" y="6.07023" width="110.685" height="128.994" filterUnits="userSpaceOnUse" color-interpolation-filters="sRGB">
<feFlood flood-opacity="0" result="BackgroundImageFix"/>
<feColorMatrix in="SourceAlpha" type="matrix" values="0 0 0 0 0 0 0 0 0 0 0 0 0 0 0 0 0 0 127 0" result="hardAlpha"/>
<feOffset dy="11.3039"/>
<feGaussianBlur stdDeviation="11.3039"/>
<feColorMatrix type="matrix" values="0 0 0 0 0.562581 0 0 0 0 0.237419 0 0 0 0 0.48 0 0 0 0.27 0"/>
<feBlend mode="normal" in2="BackgroundImageFix" result="effect1_dropShadow_2661_22959"/>
<feBlend mode="normal" in="SourceGraphic" in2="effect1_dropShadow_2661_22959" result="shape"/>
</filter>
<filter id="filter4_d_2661_22959" x="8.61525" y="38.9838" width="94.8238" height="76.9082" filterUnits="userSpaceOnUse" color-interpolation-filters="sRGB">
<feFlood flood-opacity="0" result="BackgroundImageFix"/>
<feColorMatrix in="SourceAlpha" type="matrix" values="0 0 0 0 0 0 0 0 0 0 0 0 0 0 0 0 0 0 127 0" result="hardAlpha"/>
<feOffset dy="11.3039"/>
<feGaussianBlur stdDeviation="11.3039"/>
<feColorMatrix type="matrix" values="0 0 0 0 0.562581 0 0 0 0 0.237419 0 0 0 0 0.48 0 0 0 0.27 0"/>
<feBlend mode="normal" in2="BackgroundImageFix" result="effect1_dropShadow_2661_22959"/>
<feBlend mode="normal" in="SourceGraphic" in2="effect1_dropShadow_2661_22959" result="shape"/>
</filter>
<linearGradient id="paint0_linear_2661_22959" x1="140.092" y1="80.0706" x2="140.062" y2="115.421" gradientUnits="userSpaceOnUse">
<stop stop-color="white"/>
<stop offset="0.9964" stop-color="#F7EDF5"/>
</linearGradient>
<linearGradient id="paint1_linear_2661_22959" x1="151.158" y1="77.8989" x2="165.987" y2="94.1172" gradientUnits="userSpaceOnUse">
<stop stop-color="#E1B7D6"/>
<stop offset="0.9942" stop-color="white" stop-opacity="0"/>
</linearGradient>
<linearGradient id="paint2_linear_2661_22959" x1="109.812" y1="71.6193" x2="133.184" y2="80.7653" gradientUnits="userSpaceOnUse">
<stop stop-color="#E1B7D6"/>
<stop offset="0.9942" stop-color="white" stop-opacity="0"/>
</linearGradient>
<linearGradient id="paint3_linear_2661_22959" x1="58.1839" y1="20.3625" x2="58.158" y2="50.6626" gradientUnits="userSpaceOnUse">
<stop stop-color="white"/>
<stop offset="0.927083" stop-color="#F7EDF5"/>
<stop offset="0.9964" stop-color="#ECF0F5"/>
</linearGradient>
<linearGradient id="paint4_linear_2661_22959" x1="67.6688" y1="18.5011" x2="80.3792" y2="32.4025" gradientUnits="userSpaceOnUse">
<stop stop-color="#E1B7D6"/>
<stop offset="0.9942" stop-color="white" stop-opacity="0"/>
</linearGradient>
<linearGradient id="paint5_linear_2661_22959" x1="32.2292" y1="13.1185" x2="52.2619" y2="20.9579" gradientUnits="userSpaceOnUse">
<stop stop-color="#F1DFED"/>
<stop offset="0.9942" stop-color="white" stop-opacity="0"/>
</linearGradient>
<linearGradient id="paint6_linear_2661_22959" x1="121.777" y1="28.3885" x2="121.761" y2="47.326" gradientUnits="userSpaceOnUse">
<stop stop-color="white"/>
<stop offset="0.9964" stop-color="#F6E9F3"/>
</linearGradient>
<linearGradient id="paint7_linear_2661_22959" x1="127.705" y1="27.2251" x2="135.649" y2="35.9135" gradientUnits="userSpaceOnUse">
<stop stop-color="#E2BBD8"/>
<stop offset="0.9942" stop-color="white" stop-opacity="0"/>
</linearGradient>
<linearGradient id="paint8_linear_2661_22959" x1="105.556" y1="23.861" x2="118.076" y2="28.7607" gradientUnits="userSpaceOnUse">
<stop stop-color="#F1DFED"/>
<stop offset="0.9942" stop-color="white" stop-opacity="0"/>
</linearGradient>
<linearGradient id="paint9_linear_2661_22959" x1="97.8715" y1="15.4363" x2="97.8715" y2="102.055" gradientUnits="userSpaceOnUse">
<stop stop-color="#FDFEFF"/>
<stop offset="0.9964" stop-color="#F6E9F3"/>
</linearGradient>
<linearGradient id="paint10_linear_2661_22959" x1="83.5146" y1="47.56" x2="111.552" y2="75.7174" gradientUnits="userSpaceOnUse">
<stop stop-color="#F0386A"/>
<stop offset="1" stop-color="#8F3D7A"/>
</linearGradient>
<linearGradient id="paint11_linear_2661_22959" x1="56.0272" y1="63.3843" x2="56.011" y2="82.3218" gradientUnits="userSpaceOnUse">
<stop stop-color="white"/>
<stop offset="0.9964" stop-color="#F6E9F3"/>
</linearGradient>
<linearGradient id="paint12_linear_2661_22959" x1="61.9553" y1="62.2209" x2="69.8993" y2="70.9093" gradientUnits="userSpaceOnUse">
<stop stop-color="#E1B7D6"/>
<stop offset="0.9942" stop-color="white" stop-opacity="0"/>
</linearGradient>
<linearGradient id="paint13_linear_2661_22959" x1="39.8056" y1="58.8568" x2="52.3261" y2="63.7564" gradientUnits="userSpaceOnUse">
<stop stop-color="#F1DFED"/>
<stop offset="0.9942" stop-color="white" stop-opacity="0"/>
</linearGradient>
<clipPath id="clip0_2661_22959">
<rect width="205.526" height="142" fill="white"/>
</clipPath>
</defs>
</svg>
