<svg width="115" height="115" viewBox="0 0 115 115" fill="none" xmlns="http://www.w3.org/2000/svg">
<path d="M57.7755 114.468C89.2717 114.468 114.935 88.9109 114.935 57.5207C114.829 26.0245 89.2717 0.46701 57.7755 0.46701C26.1733 0.46701 0.615723 26.0245 0.615723 57.4147C0.615723 88.9109 26.1733 114.468 57.7755 114.468Z" fill="#DFF4E1"/>
<mask id="mask0_2663_17902" style="mask-type:alpha" maskUnits="userSpaceOnUse" x="0" y="0" width="115" height="115">
<path d="M57.7755 114.468C89.2717 114.468 114.935 88.9109 114.935 57.5207C114.829 26.0245 89.2717 0.46701 57.7755 0.46701C26.1733 0.46701 0.615723 26.0245 0.615723 57.4147C0.615723 88.9109 26.1733 114.468 57.7755 114.468Z" fill="#DFF4E1"/>
</mask>
<g mask="url(#mask0_2663_17902)">
<rect x="20" y="39" width="76" height="96.7273" rx="7" fill="white"/>
<path d="M63.5499 55.6424H32.0761C31.3442 55.6424 30.7168 54.7193 30.7168 53.6424C30.7168 52.5655 31.3442 51.6424 32.0761 51.6424H63.5499C64.2818 51.6424 64.9092 52.5655 64.9092 53.6424C64.9092 54.7193 64.2818 55.6424 63.5499 55.6424Z" fill="#090E11" fill-opacity="0.1"/>
<path d="M44.4434 104H31.5566C31.2569 104 31 103.077 31 102C31 100.923 31.2569 100 31.5566 100H44.4434C44.7431 100 45 100.923 45 102C45 103.077 44.7431 104 44.4434 104Z" fill="#090E11" fill-opacity="0.1"/>
<path d="M61.4434 104H48.5566C48.2569 104 48 103.077 48 102C48 100.923 48.2569 100 48.5566 100H61.4434C61.7431 100 62 100.923 62 102C62 103.077 61.7431 104 61.4434 104Z" fill="#090E11" fill-opacity="0.1"/>
<path d="M44.1235 64.6424H32.0679C31.3404 64.6424 30.7168 63.7193 30.7168 62.6424C30.7168 61.5655 31.3404 60.6424 32.0679 60.6424H44.0196C44.7471 60.6424 45.3707 61.5655 45.3707 62.6424C45.3707 63.7193 44.7471 64.6424 44.1235 64.6424Z" fill="#090E11" fill-opacity="0.1"/>
<path d="M59.8507 89.7999L46.6992 76.6484L42.2264 81.1213L55.3778 94.2727L59.8507 89.7999Z" fill="#1EB12D"/>
<path d="M70.6368 70.1107L51.0098 89.7377L55.4826 94.2106L75.1096 74.5835L70.6368 70.1107Z" fill="#1EB12D"/>
</g>
</svg>
